<svg id="svg" version="1.1" viewBox="0 0 300 203.08483290488437" width="300" height="203.08483290488437" xmlns="http://www.w3.org/2000/svg"><svg xmlns="http://www.w3.org/2000/svg"><defs><clipPath id="clip-1"><rect x="0" y="0" transform="scale(0.14648,0.14653)" width="2048" height="1386" fill="none"/></clipPath><linearGradient x1="183.48779" y1="83.77557" x2="192.65771" y2="98.02755" gradientUnits="userSpaceOnUse" id="color-1"><stop offset="0" stop-color="#1a89e9"/><stop offset="1" stop-color="#35a2f3"/></linearGradient><linearGradient x1="161.68359" y1="127.91824" x2="146.69971" y2="130.77799" gradientUnits="userSpaceOnUse" id="color-2"><stop offset="0" stop-color="#00aed3"/><stop offset="1" stop-color="#0fccf8"/></linearGradient><linearGradient x1="164.03027" y1="131.96104" x2="160.96729" y2="132.35929" gradientUnits="userSpaceOnUse" id="color-3"><stop offset="0" stop-color="#1092b3" stop-opacity="0.73333"/><stop offset="1" stop-color="#049fc0" stop-opacity="0.80392"/></linearGradient><linearGradient x1="162.11865" y1="136.27417" x2="163.35498" y2="136.21791" gradientUnits="userSpaceOnUse" id="color-4"><stop offset="0" stop-color="#069fbf" stop-opacity="0.72549"/><stop offset="1" stop-color="#0d93b3" stop-opacity="0.76471"/></linearGradient></defs><g clip-path="url(#clip-1)" fill="none" fill-rule="nonzero" stroke="none" stroke-width="1" stroke-linecap="butt" stroke-linejoin="miter" stroke-miterlimit="10" stroke-dasharray="" stroke-dashoffset="0" font-family="none" font-weight="none" font-size="none" text-anchor="none" style="mix-blend-mode: normal"><path d="M79.61484,135.49055c-0.33896,-2.00653 -0.22046,-8.44546 -0.22163,-10.80599l0.00176,-20.86089l0.00103,-31.14114c-0.0019,-4.88136 -0.22412,-12.55888 0.13491,-17.24668c0.58711,-0.46244 46.69365,-11.3515 50.92456,-12.23359c0.42935,-0.08953 1.28569,0.01524 1.75122,0.1266c3.69243,0.88238 7.40947,1.79333 11.10322,2.6678l28.88247,6.87807c0.61963,1.05748 0.14502,3.63985 0.00879,4.99521c-0.09961,0.65438 -0.28711,1.40401 -0.08203,2.00447c0.51123,0.2743 0.68701,-0.10696 0.69873,0.28074c0.04688,1.59713 -0.49219,3.87942 -0.65918,5.48754l-0.02344,0.12836c0.01904,0.81542 -0.14941,1.75069 -0.11133,2.345l0.10254,0.0737l0.51563,0.20499l0.41309,-0.11737c0.26953,0.13422 0.59766,0.0592 0.78223,-0.17949c0.0249,-0.03355 0.04834,-0.0696 0.06738,-0.1077c0.12744,-0.01377 1.27441,-0.60588 1.4707,-0.70406l0.2417,0.43665c0.32813,-0.07634 0.9668,-0.10667 1.32715,-0.1348c1.60107,-0.04381 2.44629,0.11458 4.00781,0.49672c0.41162,0.10286 1.08984,0.24748 1.46191,0.39459l0.07178,0.04967c7.5249,2.15452 15.05566,4.86744 22.52783,7.21303c3.5918,1.12766 7.5835,5.66059 7.54688,9.50308c0.20361,1.25836 0.17725,2.54281 -0.07324,3.79224c-0.60645,2.90165 -7.54248,25.23688 -8.68066,26.75416c-0.0293,0.03927 -0.06006,0.07737 -0.09082,0.1159c-1.60547,3.81861 -6.38525,5.93356 -10.34033,5.88902c-2.68066,0.03663 -8.354,-2.03583 -11.10205,-2.93257l-1.21143,-0.41628c-2.06543,-0.6223 -4.12793,-1.25792 -6.18457,-1.90718c-0.56104,-0.25598 -2.146,-0.72179 -2.80078,-0.93337l-0.05859,0.02271l-0.76758,-0.28778c-0.5625,0.78846 -0.55371,2.0244 -1.18066,2.17356c-1.88232,-0.80662 -3.75146,-1.06466 -5.58545,-1.81091l-0.14062,-0.22961c-0.76172,-0.16557 -1.76221,-0.52368 -2.52246,-0.77117c-0.10547,0.55284 -0.09229,0.67123 -0.40576,1.11506c-0.08057,0.53672 -0.16406,1.06334 -0.22119,1.60358c-1.47656,-0.17319 -5.42139,-0.49555 -6.62109,-0.91696c1.45752,0.73365 5.90039,1.31111 7.75049,1.77414c-0.05273,0.23972 -0.39111,1.84373 -0.45264,1.99173c-0.08643,0.58303 -0.61963,3.59618 -0.62109,3.9096l-0.03223,0.10799c-0.08643,0.52632 -0.13916,0.91901 -0.29883,1.43317c-0.4248,0.29276 -0.44238,0.17744 -1.06494,0.10433l-0.00146,0.21759c0.36182,0.01744 0.24023,-0.05846 0.45703,0.12337l-0.08496,0.16528l-0.2666,0.06667c0.70459,0.11576 1.31689,0.2381 2.01563,0.39386c0.44531,0.85791 0.03662,0.99799 0.22266,1.86132c-0.12305,0.73307 -0.16406,0.93923 -0.42627,1.63596c-0.48047,1.0037 -0.51855,1.76681 -0.83643,2.7456c-0.09375,0.46991 -0.15088,0.80487 -0.31348,1.26115c-1.27734,-0.33203 -3.09668,-0.83271 -4.396,-1.03403c0.36475,0.44485 1.69043,0.43547 2.44775,0.83564c-0.62256,-0.0463 -2.24561,-0.37305 -2.54443,-0.217c-0.03809,-0.02799 5.8418,1.40885 5.9502,1.41632c0.12451,0.81996 -0.38818,2.596 -0.59912,3.49669c-0.41016,0.93278 -0.82031,3.29639 -1.15869,3.65655c-0.79395,-0.00132 -1.01221,-0.15693 -1.62891,0.14066l-0.05713,0.26521c0.39844,0.10477 1.06641,0.25437 1.41943,0.41144l0.61816,0.13979l1.48828,0.43489l-0.54346,2.12624c-0.20947,0.6749 -0.32959,1.28591 -0.47461,1.97605c-0.17139,0.18023 -0.28711,0.3165 -0.49512,0.45716c-0.94189,0.58024 -1.73584,1.05792 -2.72314,1.57369l-1.21289,0.72091c-1.10449,0.71651 -2.78906,1.77589 -3.94043,2.37665c-0.36621,0.23737 -0.7207,0.47767 -1.10303,0.69014c-3.7251,2.45577 -8.39912,4.9555 -12.24287,7.37611c-1.76909,1.11506 -6.99448,4.3401 -8.58765,5.05368c-1.56636,-0.68428 -4.74873,-2.71659 -6.30308,-3.65875l-11.36968,-6.86767l-22.30972,-13.37136c-3.55986,-2.14323 -7.82124,-4.53791 -11.23916,-6.80569z" fill="#02cefc"/><path d="M182.48584,68.52897c7.5249,2.15452 15.05566,4.86744 22.52783,7.21303c3.5918,1.12766 7.5835,5.66059 7.54688,9.50308c0.20361,1.25836 0.17725,2.54281 -0.07324,3.79224c-0.60645,2.90165 -7.54248,25.23688 -8.68066,26.75416c-0.0293,0.03927 -0.06006,0.07737 -0.09082,0.1159c-1.60547,3.81861 -6.38525,5.93356 -10.34033,5.88902c-2.68066,0.03663 -8.354,-2.03583 -11.10205,-2.93257l-1.21143,-0.41628c-2.06543,-0.6223 -4.12793,-1.25792 -6.18457,-1.90718c-0.56104,-0.25598 -2.146,-0.72179 -2.80078,-0.93337l-0.05859,0.02271l-0.76758,-0.28778l-0.38379,-0.17334c0.21387,-0.29979 0.69141,-0.7593 0.81152,-1.0777c0.37207,-1.00063 0.17285,-1.92725 0.84668,-2.81007c0.51416,-1.00824 -0.72803,-0.78465 -1.24365,-1.40284c-0.09668,-0.67109 0.46582,-2.88187 0.5625,-3.84l0.01318,-0.13202c0.09668,-1.12092 0.93896,-2.36024 0.71484,-3.44233l0.15967,-0.06081c0.39404,0.29115 0.62549,0.50009 1.09131,0.66567l0.19629,-0.09803l0.00439,-0.05641c0.63281,-0.11297 1.2085,-1.32679 1.45752,-1.87875c0.54639,0.03927 0.58887,-0.12352 1.12939,-0.47137c0.50098,0.4598 1.6333,1.20415 2.27197,1.37544l0.12891,-0.02447c0.87891,0.52354 1.40332,0.48808 2.09619,0.8412c0.12305,-0.56075 0.11426,-1.28166 -0.02783,-1.84139l0.07471,-0.04103l1.12646,-0.59138l0.09082,-0.10242c-0.20801,-0.56676 -0.13184,-1.85941 -0.12451,-2.51306l0.12891,-0.08953c-0.15527,-0.7867 -0.25488,-3.20262 -0.05859,-4.00016l-0.06738,-0.05553c0.01465,-0.97015 0.00732,-1.60402 0.18604,-2.56918c-0.3457,-0.40676 -0.35889,-1.00004 -0.03369,-1.42247c-0.15674,-0.29012 -0.15967,-1.32958 -0.18018,-1.73106l0.01318,-0.87564l0.38525,-0.1329c-0.15088,-0.06286 -0.17725,-0.11209 -0.30908,-0.22536c-0.1333,-0.72735 -0.17139,-1.95011 0.04834,-2.65212l-0.05127,-0.0611c-0.08643,-0.81014 -0.25928,-1.62863 0.17725,-2.28742l-0.09229,-0.01582l-0.77197,-0.32836l-0.32227,-0.17539c-0.04395,-0.38155 0.09375,-2.09063 0.04102,-2.9566c0.3208,0.05392 0.62549,0.07663 0.9082,0.22946c0.04541,-1.43903 -0.14209,-7.85965 0.1084,-8.69939l0.13184,0.01114c-0.17139,-0.55079 -0.26514,-0.61175 -0.00293,-1.10041z" fill="#34a6f6"/><path d="M182.48584,81.56435c1.125,0.33701 6.97998,2.2587 7.68018,2.36698l0.14355,0.06154c2.36719,0.99462 7.56445,1.65413 8.49756,4.03899c0.68262,1.74439 -1.51025,7.17215 -2.08008,9.15508c-0.83496,2.90531 -1.86182,5.87407 -2.83887,8.73602c-0.30322,0.83608 -1.11035,1.60504 -1.91895,1.88549c-2.45068,0.85102 -7.13672,-1.7504 -9.76025,-2.23804c0,-0.74435 -0.03516,-1.7101 0.11279,-2.41665l-0.08643,-0.0548c-0.51416,-0.09363 -0.6665,-0.10682 -1.12793,-0.34287c0.12305,-0.56075 0.11426,-1.28166 -0.02783,-1.84139l0.07471,-0.04103l1.12646,-0.59138l0.09082,-0.10242c-0.20801,-0.56676 -0.13184,-1.85941 -0.12451,-2.51306l0.12891,-0.08953c-0.15527,-0.7867 -0.25488,-3.20262 -0.05859,-4.00016l-0.06738,-0.05553c0.01465,-0.97015 0.00732,-1.60402 0.18604,-2.56918c-0.3457,-0.40676 -0.35889,-1.00004 -0.03369,-1.42247c-0.15674,-0.29012 -0.15967,-1.32958 -0.18018,-1.73106l0.01318,-0.87564l0.38525,-0.1329c-0.15088,-0.06286 -0.17725,-0.11209 -0.30908,-0.22536c-0.1333,-0.72735 -0.17139,-1.95011 0.04834,-2.65212l-0.05127,-0.0611c-0.08643,-0.81014 -0.25928,-1.62863 0.17725,-2.28742z" fill="#fdfefe"/><path d="M182.35986,83.91287c1.9541,0.60662 13.57617,3.90037 14.21191,4.99038c0.43799,0.74933 -2.12988,7.85642 -2.54883,9.08856c-0.61963,-1.35727 -1.38721,-3.22796 -2.92676,-3.66344c-2.50488,-0.70845 -6.44971,2.16961 -8.72021,3.24892c-0.15527,-0.7867 -0.25488,-3.20262 -0.05859,-4.00016l-0.06738,-0.05553c0.01465,-0.97015 0.00732,-1.60402 0.18604,-2.56918c-0.3457,-0.40676 -0.35889,-1.00004 -0.03369,-1.42247c-0.15674,-0.29012 -0.15967,-1.32958 -0.18018,-1.73106l0.01318,-0.87564l0.38525,-0.1329c-0.15088,-0.06286 -0.17725,-0.11209 -0.30908,-0.22536c-0.1333,-0.72735 -0.17139,-1.95011 0.04834,-2.65212z" fill="url(#color-1)"/><path d="M182.62061,86.79034c1.13232,-0.06711 2.06543,0.07971 2.95459,0.86846c0.7002,0.62977 1.11182,1.52021 1.13525,2.46207c0.0293,0.93249 -0.32373,1.83641 -0.97852,2.5012c-0.73242,0.73688 -1.61865,1.03286 -2.64258,1.01542c-0.25781,-0.0041 -0.51562,-0.02418 -0.77197,-0.06037l-0.06738,-0.05553c0.01465,-0.97015 0.00732,-1.60402 0.18604,-2.56918c-0.3457,-0.40676 -0.35889,-1.00004 -0.03369,-1.42247c-0.15674,-0.29012 -0.15967,-1.32958 -0.18018,-1.73106l0.01318,-0.87564z" fill="#fdfefe"/><path d="M182.40234,89.52993c0.29297,-0.37848 0.79248,-0.5316 1.24658,-0.38229c0.4541,0.14916 0.76465,0.56837 0.77637,1.04649c0.01025,0.47811 -0.27979,0.91154 -0.72656,1.0818c-0.44678,0.17041 -0.95215,0.04073 -1.2627,-0.32353c-0.3457,-0.40676 -0.35889,-1.00004 -0.03369,-1.42247z" fill="#1488f3"/><path d="M182.37158,100.17987c1.50293,-0.78362 6.55957,-3.69685 7.96436,-3.6567c0.91553,0.45438 2.1709,3.42783 2.72461,4.47871c-0.36914,1.26261 -0.91992,3.67003 -1.75195,4.54582c-1.08545,0.42624 -7.396,-1.90029 -8.98682,-2.39394l-0.08643,-0.0548c-0.51416,-0.09363 -0.6665,-0.10682 -1.12793,-0.34287c0.12305,-0.56075 0.11426,-1.28166 -0.02783,-1.84139l0.07471,-0.04103l1.12646,-0.59138z" fill="#34a6f6"/><path d="M182.28076,100.28229c-0.03223,0.62391 -0.01025,2.48127 -0.04541,2.81667c-0.51416,-0.09363 -0.6665,-0.10682 -1.12793,-0.34287c0.12305,-0.56075 0.11426,-1.28166 -0.02783,-1.84139l0.07471,-0.04103z" fill="#1ab6e9"/><path d="M175.48096,101.03529c0.54639,0.03927 0.58887,-0.12352 1.12939,-0.47137c0.50098,0.4598 1.6333,1.20415 2.27197,1.37544l0.12891,-0.02447c0.87891,0.52354 1.40332,0.48808 2.09619,0.8412c0.46143,0.23605 0.61377,0.24924 1.12793,0.34287l0.08643,0.0548c-0.14795,0.70655 -0.11279,1.6723 -0.11279,2.41665l-0.59033,-0.28602l-0.26953,0.04879l0.00879,0.20939c0.15967,0.61995 -0.0498,5.60461 -0.03809,6.71059c-0.04541,0.79432 -0.02344,1.35082 -0.39844,2.06206c-0.64453,0.87579 -1.2832,1.75597 -1.91602,2.64054c-1.07227,-0.60706 -1.90576,-1.18906 -2.91797,-1.88886l-0.18604,0.18404c0.32227,0.20953 0.53906,0.35694 0.84082,0.5946l-0.02783,0.13583c-0.25195,-0.03663 -1.16748,-0.50141 -1.50439,-0.63695c-0.98877,-0.39665 -2.09473,-0.37672 -2.99414,0.17568l-0.13916,0.08689l-0.05859,0.02271l-0.76758,-0.28778l-0.38379,-0.17334c0.21387,-0.29979 0.69141,-0.7593 0.81152,-1.0777c0.37207,-1.00063 0.17285,-1.92725 0.84668,-2.81007c0.51416,-1.00824 -0.72803,-0.78465 -1.24365,-1.40284c-0.09668,-0.67109 0.46582,-2.88187 0.5625,-3.84l0.01318,-0.13202c0.09668,-1.12092 0.93896,-2.36024 0.71484,-3.44233l0.15967,-0.06081c0.39404,0.29115 0.62549,0.50009 1.09131,0.66567l0.19629,-0.09803l0.00439,-0.05641c0.63281,-0.11297 1.2085,-1.32679 1.45752,-1.87875z" fill="#11a6f2"/><path d="M175.48096,101.03529c0.54639,0.03927 0.58887,-0.12352 1.12939,-0.47137c0.50098,0.4598 1.6333,1.20415 2.27197,1.37544l0.12891,-0.02447c0.87891,0.52354 1.40332,0.48808 2.09619,0.8412c0.46143,0.23605 0.61377,0.24924 1.12793,0.34287l0.08643,0.0548c-0.14795,0.70655 -0.11279,1.6723 -0.11279,2.41665l-0.59033,-0.28602l-0.26953,0.04879l0.00879,0.20939c-0.14795,0.66684 -1.38135,2.24712 -1.93652,3.2769c-1.27295,-0.69248 -5.73047,-3.01023 -6.38672,-3.95415c0.0249,-0.48925 0.58008,-1.11008 0.88477,-1.62409l-0.09668,-0.17275l0.19629,-0.09803l0.00439,-0.05641c0.63281,-0.11297 1.2085,-1.32679 1.45752,-1.87875z" fill="#34a6f6"/><path d="M175.48096,101.03529c0.54639,0.03927 0.58887,-0.12352 1.12939,-0.47137c0.50098,0.4598 1.6333,1.20415 2.27197,1.37544l0.12891,-0.02447c0.87891,0.52354 1.40332,0.48808 2.09619,0.8412c0.46143,0.23605 0.61377,0.24924 1.12793,0.34287l0.08643,0.0548c-0.14795,0.70655 -0.11279,1.6723 -0.11279,2.41665l-0.59033,-0.28602l-0.26953,0.04879l-0.29004,-0.13363c-2.33643,-0.77717 -4.68311,-1.52021 -7.04004,-2.2291l0.00439,-0.05641c0.63281,-0.11297 1.2085,-1.32679 1.45752,-1.87875z" fill="#43c6f8"/><path d="M181.05908,105.19956c0.104,-0.38478 0.14795,-1.41998 0.29297,-1.61164c0.42334,0.04088 0.2959,0.03194 0.68994,0.31737c0.0835,0.56559 -0.13184,0.82611 -0.42334,1.3791l-0.26953,0.04879z" fill="#02cefc"/><path d="M176.41846,108.675c0.93164,0.91286 3.71484,2.75527 4.90137,3.57816c-0.04541,0.79432 -0.02344,1.35082 -0.39844,2.06206c-0.64453,0.87579 -1.2832,1.75597 -1.91602,2.64054c-1.07227,-0.60706 -1.90576,-1.18906 -2.91797,-1.88886c-0.10547,-0.20177 -2.41553,-1.70791 -2.77441,-1.95861c0.75879,-1.28005 2.20752,-3.20306 3.10547,-4.43329z" fill="#34a6f6"/><path d="M182.48584,68.52897c7.5249,2.15452 15.05566,4.86744 22.52783,7.21303c3.5918,1.12766 7.5835,5.66059 7.54688,9.50308c-0.01758,0.33979 0.00732,0.7379 -0.14502,1.00824c-0.22412,-1.71772 -0.30322,-3.27046 -1.27295,-4.79521c-0.77344,-1.21514 -1.85596,-3.22767 -3.39551,-3.42592c2.5752,2.57065 3.94043,4.60003 4.12207,8.41073l0.01611,-0.12469l-0.07178,0.32558c-0.14502,-0.3691 -0.26074,-1.1832 -0.31494,-1.58057c-0.28711,-2.1066 -0.59473,-2.77681 -1.74756,-4.52882c-2.50488,-3.80484 -6.44678,-4.23079 -10.45898,-5.56212c-1.21875,-0.40456 -3.06445,-1.12239 -4.29053,-1.35024l-12.5127,-3.99268c-0.17139,-0.55079 -0.26514,-0.61175 -0.00293,-1.10041z" fill="#43c6f8"/><path d="M180.92139,114.31522c0.5332,1.02275 -0.1377,3.00158 0.56836,3.74608c0.40137,-0.07634 0.37939,-0.08 0.7002,-0.3439c0.25195,-0.49409 0.19336,-1.46174 0.13184,-2.02382l0.15234,-0.68545c0.11133,1.19433 0.0542,2.32361 0.02051,3.52028c1.07666,0.6557 6.76904,2.21899 8.29248,2.64333c0.73242,0.20411 1.96289,0.26316 2.62646,0.48573l-0.03809,0.13891c-2.68066,0.03663 -8.354,-2.03583 -11.10205,-2.93257l-1.21143,-0.41628c-2.06543,-0.6223 -4.12793,-1.25792 -6.18457,-1.90718c-0.56104,-0.25598 -2.146,-0.72179 -2.80078,-0.93337l0.13916,-0.08689c0.89941,-0.5524 2.00537,-0.57233 2.99414,-0.17568c0.33691,0.13554 1.25244,0.60032 1.50439,0.63695l0.02783,-0.13583c-0.30176,-0.23766 -0.51855,-0.38507 -0.84082,-0.5946l0.18604,-0.18404c1.01221,0.69981 1.8457,1.28181 2.91797,1.88886c0.63281,-0.88458 1.27148,-1.76476 1.91602,-2.64054z" fill="#1ab6e9"/><path d="M193.41357,121.65749c-0.41309,-0.45921 -1.17187,-0.62244 -1.57178,-0.92809c2.97949,-0.00865 4.32422,-0.05876 7.12646,-1.46643c1.40918,-0.70801 3.14941,-3.41039 4.16016,-3.46636l0.14209,0.35181c0.1333,-0.23107 0.17578,-0.29159 0.34277,-0.49921l0.10254,0.25818c-1.60547,3.81861 -6.38525,5.93356 -10.34033,5.88902z" fill="#43c6f8"/><path d="M182.48877,69.62938l12.5127,3.99268c-1.25391,0.30126 -10.69336,-3.58314 -11.62354,-3.33551c-0.06152,0.32998 0.02344,0.47767 0.13184,0.7949c-0.28271,0.74333 -0.43799,1.25763 -0.88037,1.91685l-0.10986,0.16792c0.00439,1.16884 -0.2417,7.48322 0.07764,8.09218c1.0708,0.71329 6.22559,1.73721 7.69336,2.51673l-0.12451,0.1562c-0.7002,-0.10828 -6.55518,-2.02997 -7.68018,-2.36698l-0.09229,-0.01582l-0.77197,-0.32836l-0.32227,-0.17539c-0.04395,-0.38155 0.09375,-2.09063 0.04102,-2.9566c0.3208,0.05392 0.62549,0.07663 0.9082,0.22946c0.04541,-1.43903 -0.14209,-7.85965 0.1084,-8.69939z" fill="#1488f3"/><path d="M181.34033,78.08817c0.3208,0.05392 0.62549,0.07663 0.9082,0.22946c-0.01465,0.76838 -0.11719,2.59219 0.14502,3.2309l-0.77197,-0.32836l-0.32227,-0.17539c-0.04395,-0.38155 0.09375,-2.09063 0.04102,-2.9566z" fill="#1ab6e9"/><path d="M181.34912,105.33319l0.26953,-0.04879l0.59033,0.28602c0.01758,2.41401 -0.11426,7.89672 0.11279,10.12318c0.06152,0.56207 0.12012,1.52973 -0.13184,2.02382c-0.3208,0.26389 -0.29883,0.26756 -0.7002,0.3439c-0.70605,-0.7445 -0.03516,-2.72333 -0.56836,-3.74608c0.375,-0.71124 0.35303,-1.26774 0.39844,-2.06206c-0.01172,-1.10598 0.19775,-6.09064 0.03809,-6.71059z" fill="#43c6f8"/><path d="M175.37549,67.28614l0.2417,0.43665c0.32813,-0.07634 0.9668,-0.10667 1.32715,-0.1348c1.60107,-0.04381 2.44629,0.11458 4.00781,0.49672c0.41162,0.10286 1.08984,0.24748 1.46191,0.39459l0.07178,0.04967c-0.26221,0.48866 -0.16846,0.54962 0.00293,1.10041l-0.13184,-0.01114c-0.25049,0.83974 -0.06299,7.26036 -0.1084,8.69939c-0.28271,-0.15283 -0.5874,-0.17554 -0.9082,-0.22946c0.05273,0.86597 -0.08496,2.57505 -0.04102,2.9566l0.32227,0.17539l0.77197,0.32836l0.09229,0.01582c-0.43652,0.65878 -0.26367,1.47727 -0.17725,2.28742l0.05127,0.0611c-0.21973,0.70201 -0.18164,1.92476 -0.04834,2.65212c0.13184,0.11326 0.1582,0.1625 0.30908,0.22536l-0.38525,0.1329l-0.01318,0.87564c0.02051,0.40148 0.02344,1.44094 0.18018,1.73106c-0.3252,0.42243 -0.31201,1.01572 0.03369,1.42247c-0.17871,0.96517 -0.17139,1.59904 -0.18604,2.56918l0.06738,0.05553c-0.19629,0.79754 -0.09668,3.21346 0.05859,4.00016l-0.12891,0.08953c-0.00732,0.65365 -0.0835,1.9463 0.12451,2.51306l-0.09082,0.10242l-1.12646,0.59138l-0.07471,0.04103c0.14209,0.55973 0.15088,1.28064 0.02783,1.84139c-0.69287,-0.35313 -1.21729,-0.31767 -2.09619,-0.8412l-0.12891,0.02447c-0.63867,-0.17129 -1.771,-0.91564 -2.27197,-1.37544c-0.54053,0.34785 -0.58301,0.51064 -1.12939,0.47137c-0.24902,0.55196 -0.82471,1.76578 -1.45752,1.87875l-0.00439,0.05641l-0.19629,0.09803c-0.46582,-0.16557 -0.69727,-0.37452 -1.09131,-0.66567l-0.15967,0.06081c-0.86572,-0.06608 -1.9292,-0.47709 -2.81982,-0.72501l0.06299,-0.15634c-0.09668,-0.34859 -0.12598,-0.35899 -0.04102,-0.72149c0.40723,0.10462 0.81445,0.20719 1.22314,0.30756c0.07324,-0.37848 0.20215,-1.60314 0.27246,-1.79421c0.31201,-0.84252 0.57715,-1.57486 0.85254,-2.44947c-0.12744,-0.49189 0.54492,-1.83787 0.49219,-2.74868l-0.25049,-0.06432c-0.92285,-0.29291 -2.09912,-0.62039 -2.94141,-1.05587l0.28711,0.11722l0.18311,-0.09964c0.49658,0.10345 0.76758,0.17539 1.22314,0.39811c-0.41016,-0.65922 -1.63623,-0.75285 -2.36133,-0.86846l0.0249,-0.19766c0.76025,0.13656 1.68896,0.40031 2.45068,0.5946c0.37793,-1.81663 1.08252,-5.01529 1.24365,-6.76422l0.28418,-0.35093l-0.04834,-0.27972c-0.30908,-0.4346 -3.25928,-0.99638 -3.99756,-1.19624c-1.04297,-0.4935 -2.60596,-0.5146 -3.45557,-0.9744c0.57422,-2.30177 1.43848,-5.1202 2.3584,-7.31325c0.27539,-0.10784 0.3252,-0.06403 0.61377,0.00293c0.34863,0.57189 0.15674,0.74743 0.30762,1.52152c0.73242,0.36221 1.10742,-0.59592 1.67725,-0.97733c0.271,-0.02081 0.49512,-0.03824 0.67236,-0.05202l0.15967,-0.01465c-0.2373,-0.19722 -1.26562,-0.45745 -1.60693,-0.41335l-0.79541,-0.12044c-0.36768,-0.06843 -0.38818,-0.05773 -0.73389,-0.23473c0.44678,-0.16264 2.57227,0.21363 3.11279,0.38038l0.57715,-0.15634c0.32373,-0.48178 0.74854,-3.90843 0.92139,-4.8588c0.05566,-0.16059 0.19775,-1.08751 0.23584,-1.31243l-0.54346,-0.96575l0.4292,-0.52544l0.41309,-0.11737c0.26953,0.13422 0.59766,0.0592 0.78223,-0.17949c0.0249,-0.03355 0.04834,-0.0696 0.06738,-0.1077c0.12744,-0.01377 1.27441,-0.60588 1.4707,-0.70406z" fill="#11a6f2"/><path d="M179.26172,84.06481c0.10986,-0.30829 0.25488,-0.39371 0.49951,-0.60969c0.49805,-0.17041 0.62256,-0.10945 1.13965,0.02403l0.19922,0.05832c0.36328,0.08249 0.87598,0.18081 1.2085,0.3143l0.05127,0.0611c-0.21973,0.70201 -0.18164,1.92476 -0.04834,2.65212c0.13184,0.11326 0.1582,0.1625 0.30908,0.22536l-0.38525,0.1329l-0.01318,0.87564c0.02051,0.40148 0.02344,1.44094 0.18018,1.73106c-0.3252,0.42243 -0.31201,1.01572 0.03369,1.42247c-0.17871,0.96517 -0.17139,1.59904 -0.18604,2.56918l0.06738,0.05553c-0.19629,0.79754 -0.09668,3.21346 0.05859,4.00016l-0.12891,0.08953c-0.00732,0.65365 -0.0835,1.9463 0.12451,2.51306l-0.09082,0.10242l-1.12646,0.59138l-0.07471,0.04103c0.14209,0.55973 0.15088,1.28064 0.02783,1.84139c-0.69287,-0.35313 -1.21729,-0.31767 -2.09619,-0.8412l-0.12891,0.02447c-0.63867,-0.17129 -1.771,-0.91564 -2.27197,-1.37544c-0.54053,0.34785 -0.58301,0.51064 -1.12939,0.47137c-0.24902,0.55196 -0.82471,1.76578 -1.45752,1.87875l-0.00439,0.05641l-0.19629,0.09803c-0.46582,-0.16557 -0.69727,-0.37452 -1.09131,-0.66567l-0.15967,0.06081c-0.86572,-0.06608 -1.9292,-0.47709 -2.81982,-0.72501l0.06299,-0.15634c-0.09668,-0.34859 -0.12598,-0.35899 -0.04102,-0.72149c0.40723,0.10462 0.81445,0.20719 1.22314,0.30756c0.07324,-0.37848 0.20215,-1.60314 0.27246,-1.79421c0.31201,-0.84252 0.57715,-1.57486 0.85254,-2.44947l0.38525,0.65805l0.06152,-0.17583c0.46582,-1.83318 1.60254,-5.11771 2.25586,-6.95456c0.52588,0.14858 1.76807,0.54581 2.08887,0.9618c0.68115,-2.03598 1.3374,-4.33145 1.99072,-6.40611z" fill="#11a6f2"/><path d="M174.82471,90.45231c0.52588,0.14858 1.76807,0.54581 2.08887,0.9618l-0.35596,1.00546l-1.47656,4.71022c-0.1084,0.39899 -0.27539,0.94978 -0.35449,1.33983l-0.08643,-0.03546c-0.47168,1.33646 -0.66064,1.97927 0.84082,2.60113c-0.24902,0.55196 -0.82471,1.76578 -1.45752,1.87875l-0.00439,0.05641l-0.19629,0.09803c-0.46582,-0.16557 -0.69727,-0.37452 -1.09131,-0.66567l-0.15967,0.06081c-0.86572,-0.06608 -1.9292,-0.47709 -2.81982,-0.72501l0.06299,-0.15634c-0.09668,-0.34859 -0.12598,-0.35899 -0.04102,-0.72149c0.40723,0.10462 0.81445,0.20719 1.22314,0.30756c0.07324,-0.37848 0.20215,-1.60314 0.27246,-1.79421c0.31201,-0.84252 0.57715,-1.57486 0.85254,-2.44947l0.38525,0.65805l0.06152,-0.17583c0.46582,-1.83318 1.60254,-5.11771 2.25586,-6.95456z" fill="#64dff9"/><path d="M172.82813,97.32599c0.12891,-0.47782 2.32617,-4.57131 2.65283,-5.15551c0.36768,-0.10506 0.65039,0.0907 1.07666,0.24909l-1.47656,4.71022c-0.1084,0.39899 -0.27539,0.94978 -0.35449,1.33983l-0.08643,-0.03546c-0.34424,-0.45452 -1.2583,-0.83168 -1.81201,-1.10818z" fill="#43c6f8"/><path d="M172.12207,96.92465l0.38525,0.65805c-0.64453,2.09884 -0.89209,4.24163 1.51611,5.33134l-0.00439,0.05641l-0.19629,0.09803c-0.46582,-0.16557 -0.69727,-0.37452 -1.09131,-0.66567l-0.15967,0.06081c-0.86572,-0.06608 -1.9292,-0.47709 -2.81982,-0.72501l0.06299,-0.15634c-0.09668,-0.34859 -0.12598,-0.35899 -0.04102,-0.72149c0.40723,0.10462 0.81445,0.20719 1.22314,0.30756c0.07324,-0.37848 0.20215,-1.60314 0.27246,-1.79421c0.31201,-0.84252 0.57715,-1.57486 0.85254,-2.44947z" fill="#1ab6e9"/><path d="M181.12061,98.1839l1.12646,-0.51709c-0.00732,0.65365 -0.0835,1.9463 0.12451,2.51306l-0.09082,0.10242l-1.12646,0.59138l-0.07471,0.04103c0.14209,0.55973 0.15088,1.28064 0.02783,1.84139c-0.69287,-0.35313 -1.21729,-0.31767 -2.09619,-0.8412l-0.12891,0.02447c-0.63867,-0.17129 -1.771,-0.91564 -2.27197,-1.37544c0.55664,-0.27693 0.85107,-0.40324 1.43701,-0.61394l0.05713,-0.13231c0.87158,-0.46668 1.89111,-1.05499 2.80518,-1.39068l0.18311,-0.12513z" fill="#fdfefe"/><path d="M178.10449,99.81766c0.87158,-0.46668 1.89111,-1.05499 2.80518,-1.39068c-0.36621,0.73219 -0.81592,1.706 -1.21729,2.39643c-0.36914,-0.18184 -1.38281,-0.6516 -1.64502,-0.87344z" fill="#43c6f8"/><path d="M181.12061,98.1839l1.12646,-0.51709c-0.00732,0.65365 -0.0835,1.9463 0.12451,2.51306l-0.09082,0.10242l-1.12646,0.59138c0.09814,-0.69395 0.14209,-1.90484 -0.06152,-2.57182z" fill="#50d9fa"/><path d="M179.01123,101.91489c0.67236,-0.34624 1.38281,-0.67373 2.06836,-1.00019c0.14209,0.55973 0.15088,1.28064 0.02783,1.84139c-0.69287,-0.35313 -1.21729,-0.31767 -2.09619,-0.8412z" fill="#11a6f2"/><path d="M181.51318,89.20406c0.29883,-0.52544 0.46729,-0.84956 0.70898,-1.40518c0.02051,0.40148 0.02344,1.44094 0.18018,1.73106c-0.3252,0.42243 -0.31201,1.01572 0.03369,1.42247c-0.17871,0.96517 -0.17139,1.59904 -0.18604,2.56918c-0.41602,-0.12587 -0.63574,-0.2299 -1.03418,-0.41218l-0.18457,-0.2318l-0.76904,-0.8308c0.22852,-0.66449 0.56689,-1.34013 0.86719,-1.98015c0.16113,-0.30287 0.25635,-0.54449 0.38379,-0.8626z" fill="#64dff9"/><path d="M181.12939,90.06666c0.11426,0.74831 0.24756,2.13664 -0.09814,2.81095l-0.76904,-0.8308c0.22852,-0.66449 0.56689,-1.34013 0.86719,-1.98015z" fill="#fdfefe"/><path d="M181.26123,87.473l0.97412,-0.54977l-0.01318,0.87564c-0.2417,0.55563 -0.41016,0.87974 -0.70898,1.40518c-0.12744,0.31811 -0.22266,0.55973 -0.38379,0.8626c-0.30029,0.64002 -0.63867,1.31566 -0.86719,1.98015c-0.7793,-1.62395 -0.51855,-3.3361 0.86572,-4.51988z" fill="#43c6f8"/><path d="M181.26123,87.473l0.97412,-0.54977l-0.01318,0.87564c-0.2417,0.55563 -0.41016,0.87974 -0.70898,1.40518c-0.19189,-0.15078 -0.1626,-0.17261 -0.29443,-0.40925c0.05713,-0.51475 0.15967,-0.83256 -0.09082,-1.26789z" fill="#43c6f8"/><path d="M174.64014,98.43416l0.08643,0.03546c0.46289,0.32499 0.97412,0.50801 1.49707,0.72882c0.69434,0.08865 1.23486,0.35181 1.88086,0.61922l-0.05713,0.13231c-0.58594,0.2107 -0.88037,0.33701 -1.43701,0.61394c-0.54053,0.34785 -0.58301,0.51064 -1.12939,0.47137c-1.50146,-0.62186 -1.3125,-1.26466 -0.84082,-2.60113z" fill="#11a6f2"/><path d="M181.21582,93.10941c0.39844,0.18228 0.61816,0.28631 1.03418,0.41218l0.06738,0.05553c-0.19629,0.79754 -0.09668,3.21346 0.05859,4.00016l-0.12891,0.08953l-1.12646,0.51709c0.27832,-0.75915 0.17725,-4.15328 0.09521,-5.07448z" fill="#1ab6e9"/><path d="M181.1001,83.53747c0.36328,0.08249 0.87598,0.18081 1.2085,0.3143l0.05127,0.0611c-0.21973,0.70201 -0.18164,1.92476 -0.04834,2.65212c0.13184,0.11326 0.1582,0.1625 0.30908,0.22536l-0.38525,0.1329l-0.97412,0.54977c0.04541,-1.11433 0.17139,-2.91249 -0.16113,-3.93554z" fill="#1ab6e9"/><path d="M175.08105,97.12979c1.16455,0.67299 0.86426,1.5416 1.48535,1.91275c-0.17578,0.10462 -0.15234,0.11766 -0.34277,0.1559c-0.52295,-0.22081 -1.03418,-0.40383 -1.49707,-0.72882c0.0791,-0.39005 0.24609,-0.94084 0.35449,-1.33983z" fill="#34a6f6"/><path d="M176.91797,83.71813c0.27393,0.80164 1.2041,0.99535 1.98633,1.28987c-0.65332,2.07466 -1.30957,4.37013 -1.99072,6.40611c-0.3208,-0.41599 -1.56299,-0.81322 -2.08887,-0.9618c0.22559,-1.35229 1.6377,-5.11492 2.09326,-6.73418z" fill="#43c6f8"/><path d="M171.04541,76.60166l1.84277,0.2469c-0.54053,2.16096 -0.94189,5.25149 -1.2085,7.47736c-1.02393,-0.09524 -5.11084,-0.69248 -5.89014,-0.88326l-0.10547,-0.19884c0.40137,-0.09231 4.78271,0.71871 5.71289,0.77937c0.23145,-0.45613 0.67969,-3.51794 0.43945,-3.97847c-0.14062,0.98817 -0.29004,2.91205 -0.89209,3.6293c-0.78516,0.30653 -1.35791,-0.54552 -2.21777,-0.49101c-0.30615,0.01949 -0.31787,0.02051 -0.58301,-0.11971l0.1377,-0.3984c0.86426,-0.55826 1.2085,0.74875 2.19287,0.79241c0.38818,-0.2869 0.4585,-0.29965 0.59326,-0.73527l-0.12305,-0.15913c-0.14941,-0.00557 -0.63721,-0.0274 -0.75586,-0.05055c-1.43701,-0.28162 -0.42773,-2.53666 -0.65039,-3.48438c-0.19775,-0.26331 -0.35156,-0.46947 -0.46143,-0.61805c0.14502,-0.365 0.14355,-0.26594 0.59033,-0.51138c1.21436,0.34038 0.72803,3.97994 1.31543,4.4453c0.22998,-2.17342 1.25244,-3.26416 -0.04834,-5.23845l0.15088,-0.05143l0.08936,-0.24191l-0.28857,-0.19576z" fill="#43c6f8"/><path d="M176.96338,83.46186c0.31641,-1.96623 2.69385,-2.46647 4.33594,-2.41709l0.32227,0.17539l0.77197,0.32836l0.09229,0.01582c-0.43652,0.65878 -0.26367,1.47727 -0.17725,2.28742c-0.33252,-0.13349 -0.84521,-0.2318 -1.2085,-0.3143l-0.19922,-0.05832c-0.51709,-0.13349 -0.6416,-0.19444 -1.13965,-0.02403c-0.24463,0.21598 -0.38965,0.3014 -0.49951,0.60969l-0.35742,0.94319c-0.78223,-0.29452 -1.7124,-0.48822 -1.98633,-1.28987z" fill="#43c6f8"/><path d="M181.62158,81.22016l0.77197,0.32836l0.09229,0.01582c-0.43652,0.65878 -0.26367,1.47727 -0.17725,2.28742c-0.33252,-0.13349 -0.84521,-0.2318 -1.2085,-0.3143l-0.19922,-0.05832c-0.13477,-0.66479 0.43066,-1.51596 0.7207,-2.25899z" fill="#50d9fa"/><path d="M176.96338,83.46186l0.26221,-0.28089c0.74707,0.0548 1.21289,0.29027 1.87354,0.63856l0.1626,0.24528l-0.35742,0.94319c-0.78223,-0.29452 -1.7124,-0.48822 -1.98633,-1.28987z" fill="#64dff9"/><path d="M181.4707,69.06525c0.47168,0.16865 0.54932,0.18843 0.88623,0.55299c-0.25049,0.83974 -0.06299,7.26036 -0.1084,8.69939c-0.28271,-0.15283 -0.5874,-0.17554 -0.9082,-0.22946c-0.20068,-0.50449 -0.05273,-8.11431 0.13037,-9.02292z" fill="#1ab6e9"/><path d="M176.94434,67.58798c1.60107,-0.04381 2.44629,0.11458 4.00781,0.49672c0.41162,0.10286 1.08984,0.24748 1.46191,0.39459l0.07178,0.04967c-0.26221,0.48866 -0.16846,0.54962 0.00293,1.10041l-0.13184,-0.01114c-0.33691,-0.36456 -0.41455,-0.38434 -0.88623,-0.55299c-0.95654,-0.0715 -3.19922,-0.88985 -4.21875,-1.22877z" fill="#1ab6e9"/><path d="M175.61719,67.72278c0.32813,-0.07634 0.9668,-0.10667 1.32715,-0.1348l0.30762,0.24851c-0.23437,0.27767 -0.40723,0.65043 -0.58594,0.97777c-0.64307,0.05451 -1.45752,0.00044 -1.98193,-0.40822l-0.00439,-0.29891c0.29297,-0.2699 0.53467,-0.28294 0.9375,-0.38434z" fill="#34a6f6"/><path d="M173.8374,68.09789c0.01318,1.01997 -0.13916,1.41617 -1.08105,1.78805l-0.54346,-0.96575l0.4292,-0.52544l0.41309,-0.11737c0.26953,0.13422 0.59766,0.0592 0.78223,-0.17949z" fill="#43c6f8"/><path d="M151.50586,125.74277l0.17871,0.10945l0.09814,-1.13528c0.69727,-0.55094 7.39014,0.63753 8.07129,1.10949l-0.00146,0.21759c0.36182,0.01744 0.24023,-0.05846 0.45703,0.12337l-0.08496,0.16528l-0.2666,0.06667c0.70459,0.11576 1.31689,0.2381 2.01563,0.39386c0.44531,0.85791 0.03662,0.99799 0.22266,1.86132c-0.12305,0.73307 -0.16406,0.93923 -0.42627,1.63596c-0.48047,1.0037 -0.51855,1.76681 -0.83643,2.7456c-0.09375,0.46991 -0.15088,0.80487 -0.31348,1.26115c-1.27734,-0.33203 -3.09668,-0.83271 -4.396,-1.03403c-1.0708,-0.42536 -3.47607,-0.78509 -4.70947,-1.05557c-0.0293,0.35137 -0.08057,1.29148 -0.18604,1.57545c-1.33447,-0.12968 -2.6748,-0.2047 -4.01514,-0.22462c-0.04102,-0.58083 -0.21387,-1.26393 -0.33838,-1.84271c0.14355,-0.03663 0.72217,-0.18858 0.7749,-0.27356c0.70166,-1.14261 -0.19189,-4.0214 0.50391,-4.8692c0.54932,-0.08542 0.45117,-0.15795 0.86133,0.0422l0.17432,0.59592c0.46143,0.27986 0.65479,0.13334 1.30518,0.05729l0.07178,-0.12924c-0.27832,-0.30609 -0.51855,-0.52046 -0.68115,-0.90172c0.20801,-0.39254 0.21826,-0.40544 0.17725,-0.8352c0.54492,0.30609 0.74121,0.29334 1.34326,0.34053z" fill="url(#color-2)"/><path d="M161.97363,126.79322c0.44531,0.85791 0.03662,0.99799 0.22266,1.86132c-0.12305,0.73307 -0.16406,0.93923 -0.42627,1.63596c-0.48047,1.0037 -0.51855,1.76681 -0.83643,2.7456c-0.6123,-1.0777 0.76025,-4.5675 1.04004,-6.24288z" fill="#06b0d7"/><path d="M158.7334,132.2028c0.55371,-0.02447 1.1499,-0.10184 1.65088,0.09744l-0.00879,0.20059l-0.33545,0.21715c-0.62402,0.0255 -0.93896,0.06476 -1.55859,-0.08806l-0.06152,-0.19942z" fill="#06b0d7"/><path d="M161.6792,112.7493l0.15527,0.05612c-0.12305,1.00678 -0.26221,2.01151 -0.41895,3.01345c-0.08057,0.53672 -0.16406,1.06334 -0.22119,1.60358c-1.47656,-0.17319 -5.42139,-0.49555 -6.62109,-0.91696c1.45752,0.73365 5.90039,1.31111 7.75049,1.77414c-0.05273,0.23972 -0.39111,1.84373 -0.45264,1.99173c-0.08643,0.58303 -0.61963,3.59618 -0.62109,3.9096l-0.03223,0.10799c-0.08643,0.52632 -0.13916,0.91901 -0.29883,1.43317c-0.4248,0.29276 -0.44238,0.17744 -1.06494,0.10433c-0.68115,-0.47196 -7.37402,-1.66043 -8.07129,-1.10949l-0.09814,1.13528l-0.17871,-0.10945c-0.04102,-0.53599 0.00293,-0.79051 0.06445,-1.31536c0.43506,-1.58263 0.07471,-8.20017 0.2915,-8.50524c1.53076,0.44031 4.74316,0.37174 6.44531,0.85469c0.65771,0.18653 1.74609,0.13729 2.47852,0.32265l0.18164,0.04747c0.08643,-1.09103 0.41016,-3.40072 0.71191,-4.39768z" fill="#1ab6e9"/><path d="M161.21777,124.28894c-0.31787,-0.20777 -0.57275,-0.39064 -0.87598,-0.6198c1.38281,-0.93821 0.03223,-1.3517 1.5293,-3.39779c-0.08643,0.58303 -0.61963,3.59618 -0.62109,3.9096z" fill="#06b0d7"/><path d="M151.51465,132.20764c1.2334,0.27049 3.63867,0.63021 4.70947,1.05557c0.36475,0.44485 1.69043,0.43547 2.44775,0.83564c-0.62256,-0.0463 -2.24561,-0.37305 -2.54443,-0.217c-0.03809,-0.02799 5.8418,1.40885 5.9502,1.41632c0.12451,0.81996 -0.38818,2.596 -0.59912,3.49669c-0.41016,0.93278 -0.82031,3.29639 -1.15869,3.65655c-1.73437,-0.78245 -5.29102,-1.20019 -7.19531,-1.85487c0.16113,-0.07707 0.14209,-0.09099 0.27539,-0.22594l-0.14795,-0.29232c-0.43213,-0.42492 -0.89795,-0.42082 -1.49707,-0.49775c-0.44238,-0.7845 0.36621,-3.7071 0.24902,-4.76326c-0.08057,-0.73322 -0.24463,-0.14433 -0.83789,-0.67109l0.1626,-0.36309c0.10547,-0.28397 0.15674,-1.22408 0.18604,-1.57545z" fill="#06b0d7"/><path d="M155.67773,135.35165l0.0293,0.15927c0.13916,0.137 0.27832,0.23605 0.44824,0.331c-0.51123,0.27532 -1.11182,0.87813 -1.54248,1.28943c-0.25781,0.02418 -0.1875,0.0126 -0.45117,-0.05495c-0.9375,-1.38907 0.49805,-1.64695 1.51611,-1.72476z" fill="#1ab6e9"/><path d="M160.53809,135.62433l0.22266,0.1833c0.19629,0.51753 0.08496,0.89952 0.00732,1.45661l-0.2417,-0.29349c-0.1377,-0.5735 -0.07764,-0.78025 0.01172,-1.34643z" fill="#1ab6e9"/><path d="M149.94287,142.30664c2.25439,0.21759 0.95508,-0.92575 1.81934,-1.96125c0.47607,-0.13026 0.87158,0.08118 1.3623,0.25115c1.9043,0.65468 5.46094,1.07242 7.19531,1.85487c-0.79395,-0.00132 -1.01221,-0.15693 -1.62891,0.14066l-0.05713,0.26521c0.39844,0.10477 1.06641,0.25437 1.41943,0.41144l0.61816,0.13979l1.48828,0.43489l-0.54346,2.12624c-0.20947,0.6749 -0.32959,1.28591 -0.47461,1.97605c-0.17139,0.18023 -0.28711,0.3165 -0.49512,0.45716c-0.94189,0.58024 -1.73584,1.05792 -2.72314,1.57369c-1.91895,-0.50112 -3.8877,-1.22349 -5.85498,-1.58541c-0.49219,-0.09085 -0.43359,-0.05861 -0.73828,0.18609c0.04541,-0.58464 0.04541,-1.16048 0.26074,-1.6953c0.16406,-1.38335 0.3501,-2.76362 0.55664,-4.14082c-0.67969,-0.08836 -1.61426,-0.15722 -2.20459,-0.43445z" fill="#06b0d7"/><path d="M149.94287,142.30664c2.25439,0.21759 0.95508,-0.92575 1.81934,-1.96125c0.47607,-0.13026 0.87158,0.08118 1.3623,0.25115c1.9043,0.65468 5.46094,1.07242 7.19531,1.85487c-0.79395,-0.00132 -1.01221,-0.15693 -1.62891,0.14066l-0.05713,0.26521c-1.75488,-0.36075 -3.45117,-1.07462 -5.20898,-1.49647c-0.28564,0.82567 -1.53662,5.24416 -1.83398,5.52109c0.16406,-1.38335 0.3501,-2.76362 0.55664,-4.14082c-0.67969,-0.08836 -1.61426,-0.15722 -2.20459,-0.43445z" fill="#0c90b4"/><path d="M160.05322,143.26873l0.61816,0.13979l1.48828,0.43489l-0.54346,2.12624c-0.20947,0.6749 -0.32959,1.28591 -0.47461,1.97605c-0.17139,0.18023 -0.28711,0.3165 -0.49512,0.45716c0.69141,-2.34236 -0.15527,-1.28503 -0.22705,-2.74135c0.47168,-0.19356 0.52148,-0.1962 0.87891,-0.54302c0.09668,-0.52984 0.09961,-0.31987 -0.10254,-0.85132c-0.31494,0.01539 -0.34277,0.03253 -0.65625,-0.05348c-0.17285,-0.44339 -0.21826,-0.55401 -0.48633,-0.94495z" fill="#34a6f6"/><path d="M162.31641,69.30863c0.06152,-0.64926 0.10986,-1.61589 0.32227,-2.20228c0.92578,-0.54332 4.69629,0.43738 5.95752,0.70567c0.96533,0.12176 1.53369,0.16601 2.44482,0.50053c0.52002,0.03458 0.58887,0.03355 1.08545,-0.12279l0.51563,0.20499l-0.4292,0.52544c-1.20996,0.58332 -3.85986,2.81696 -4.43848,3.99122c-0.36182,0.70523 -0.89502,1.67552 -1.18066,2.38808c-0.16406,0.31899 -0.31641,0.60852 -0.45703,0.93821l-0.08203,-0.32192c-1.0166,-0.23708 -2.0332,-0.4661 -3.05273,-0.68721c-0.1084,0.84003 -0.33252,1.83025 -0.41309,2.57387c0.12891,0.40778 0.06152,0.71519 -0.16699,1.05147c-0.81006,-0.72164 0.0791,-2.3072 -0.62988,-3.32247c-0.20654,-0.29686 -0.54492,-1.01748 -0.45996,-1.34511c0.66357,-0.39064 1.02832,-0.16924 1.87061,-0.30946c0.36035,-0.49086 0.13916,-2.74443 0.08643,-3.4205c-0.04395,-0.56588 -0.65479,-0.0548 -0.97266,-1.14774z" fill="#43c6f8"/><path d="M162.58887,77.80244l-0.09521,0.03502c-0.30762,-0.19444 -0.06738,-1.48357 -0.34424,-1.8893c-0.25488,-0.3732 -0.20361,-0.6664 0,-1.01323c0.77051,-0.37437 3.64453,0.13876 4.44434,0.36456c-0.16406,0.31899 -0.31641,0.60852 -0.45703,0.93821l-0.08203,-0.32192c-1.0166,-0.23708 -2.0332,-0.4661 -3.05273,-0.68721c-0.1084,0.84003 -0.33252,1.83025 -0.41309,2.57387z" fill="#1ab6e9"/><path d="M168.59619,67.81202c0.96533,0.12176 1.53369,0.16601 2.44482,0.50053c-0.12305,0.40485 -0.59473,0.92194 -0.96094,1.14935l-0.41455,-0.11429c-0.46436,-0.42419 -0.92871,-0.91579 -1.06934,-1.53559z" fill="#1ab6e9"/><path d="M149.8125,142.31631c-0.43359,0.03414 -4.16367,-0.59079 -4.78345,-0.7045c-0.27744,-0.40558 -0.29414,-0.41892 -0.32886,-0.89615c0.07896,-0.26712 0.24902,-0.5442 0.49893,-0.64545c1.53721,-0.62361 0.27847,-3.39749 0.90146,-4.39241c0.39844,-0.0504 0.44092,-0.04366 0.79248,-0.22257c0.19336,-0.6494 -0.04395,-2.62486 0.08203,-3.73949c0.12451,0.57878 0.29736,1.26188 0.33838,1.84271c1.34033,0.01993 2.68066,0.09495 4.01514,0.22462l-0.1626,0.36309c0.59326,0.52676 0.75732,-0.06213 0.83789,0.67109c0.11719,1.05616 -0.69141,3.97876 -0.24902,4.76326c0.59912,0.07693 1.06494,0.07282 1.49707,0.49775l0.14795,0.29232c-0.1333,0.13495 -0.11426,0.14887 -0.27539,0.22594c-0.49072,-0.16997 -0.88623,-0.38141 -1.3623,-0.25115c-0.86426,1.0355 0.43506,2.17884 -1.81934,1.96125z" fill="#43c6f8"/><path d="M161.83447,112.80542c0.00439,-0.47108 0.00439,-1.03037 0.25928,-1.40958c0.3999,-0.04718 0.34277,0.03751 0.78662,0.37452c0.38818,0.24997 0.81152,0.46698 1.06055,0.83871c2.25732,1.23052 4.51758,1.72783 6.92578,2.55951l0.38379,0.17334c-0.5625,0.78846 -0.55371,2.0244 -1.18066,2.17356c-1.88232,-0.80662 -3.75146,-1.06466 -5.58545,-1.81091l-0.14062,-0.22961c-0.76172,-0.16557 -1.76221,-0.52368 -2.52246,-0.77117c-0.10547,0.55284 -0.09229,0.67123 -0.40576,1.11506c0.15674,-1.00194 0.2959,-2.00667 0.41895,-3.01345z" fill="#1ab6e9"/><path d="M161.83447,112.80542c0.00439,-0.47108 0.00439,-1.03037 0.25928,-1.40958c0.3999,-0.04718 0.34277,0.03751 0.78662,0.37452c0.38818,0.24997 0.81152,0.46698 1.06055,0.83871c-0.41309,0.34815 -0.71924,0.55401 -0.99316,1.02026c-0.04395,1.18598 0.96533,1.05044 1.396,1.84564c-0.76172,-0.16557 -1.76221,-0.52368 -2.52246,-0.77117c-0.10547,0.55284 -0.09229,0.67123 -0.40576,1.11506c0.15674,-1.00194 0.2959,-2.00667 0.41895,-3.01345z" fill="#06b0d7"/><path d="M161.83447,112.80542c0.00439,-0.47108 0.00439,-1.03037 0.25928,-1.40958c0.3999,-0.04718 0.34277,0.03751 0.78662,0.37452c-0.3501,0.95696 -0.74414,1.96989 -1.05908,2.93345c-0.10547,0.55284 -0.09229,0.67123 -0.40576,1.11506c0.15674,-1.00194 0.2959,-2.00667 0.41895,-3.01345z" fill="#11a6f2"/><path d="M166.56299,108.21535l-0.37939,-0.25701c0.30029,-0.79988 1.73145,-0.17554 2.49609,-0.78406c1.43555,-1.14261 -0.39404,-4.50523 -0.2124,-5.81283c0.39111,-0.06945 0.89355,0.2107 1.28467,0.37716c0.89063,0.24792 1.9541,0.65893 2.81982,0.72501c0.22412,1.08209 -0.61816,2.32141 -0.71484,3.44233c-0.646,1.09909 -0.91846,2.31262 -0.96094,3.57904c-1.43408,-0.46053 -2.87842,-0.88384 -4.33301,-1.26965z" fill="#43c6f8"/><path d="M151.33008,148.57722c0.30469,-0.2447 0.24609,-0.27693 0.73828,-0.18609c1.96729,0.36192 3.93604,1.08429 5.85498,1.58541l-1.21289,0.72091c-1.10449,0.71651 -2.78906,1.77589 -3.94043,2.37665c-0.36621,0.23737 -0.7207,0.47767 -1.10303,0.69014c0.15674,-0.92018 0.18604,-1.57662 0.23145,-2.49973c-0.62695,-0.10843 -1.22754,-0.16118 -1.7666,-0.49086c0.4292,-0.08059 0.47168,-0.07912 0.84668,-0.28719c0.3501,-0.49086 0.31494,-1.2821 0.35156,-1.90923z" fill="#0c90b4"/><path d="M153.71484,149.62048c1.07373,0.34434 1.94824,0.66669 2.99561,1.07697c-1.10449,0.71651 -2.78906,1.77589 -3.94043,2.37665c-0.19336,-0.49379 0.71484,-2.78399 0.94482,-3.45361z" fill="#06b0d7"/><path d="M172.36377,94.11165l0.25049,0.06432c0.05273,0.9108 -0.61963,2.25679 -0.49219,2.74868c-0.27539,0.87461 -0.54053,1.60695 -0.85254,2.44947c-0.07031,0.19107 -0.19922,1.41573 -0.27246,1.79421c-0.40869,-0.10037 -0.81592,-0.20294 -1.22314,-0.30756c-0.71045,-0.25071 -1.29785,-0.22536 -1.90283,-0.61849c0.58301,0.06286 1.29639,0.1921 1.78711,-0.07136c0.22119,-1.19287 0.68701,-4.29658 0.55664,-5.39992c1.396,-0.84458 1.16602,-0.12059 2.14893,-0.65937z" fill="#43c6f8"/><path d="M149.8125,142.31631l0.13037,-0.00967c0.59033,0.27723 1.5249,0.34609 2.20459,0.43445c-0.20654,1.3772 -0.39258,2.75747 -0.55664,4.14082c-0.21533,0.53482 -0.21533,1.11067 -0.26074,1.6953c-0.03662,0.62713 -0.00146,1.41837 -0.35156,1.90923c-0.375,0.20807 -0.41748,0.2066 -0.84668,0.28719c-0.40723,-0.44251 -4.24043,-0.71358 -5.17251,-0.96414l0.06782,-0.14213c1.16016,0.00733 1.45137,0.19928 2.53096,0.34141c0.96094,0.12748 2.22363,0.18462 3.2124,0.24177l0.19629,-0.43958l-0.08057,-0.18023c-0.31787,0.1773 -0.20215,0.16411 -0.5332,0.19488c0.104,-0.47767 0.48926,-1.75538 0.37646,-2.07481c-0.479,-1.34511 0.38525,-3.83238 0.10547,-4.83477c-0.34863,-0.30653 -1.3623,-0.23679 -2.02441,-0.37774l0.51709,-0.19869l-0.03516,0.03502z" fill="#1ab6e9"/><path d="M162.31641,69.30863c-0.05273,-0.49438 -0.27393,-2.22631 -0.14941,-2.61417c0.8584,-0.29891 6.33398,0.67798 8.27637,0.59211c-0.27832,-0.11444 -0.78662,-0.2236 -1.09717,-0.30214l-0.10107,-0.32382c0.58008,-0.24367 0.99609,0.50273 1.71826,0.46537c0.33984,-1.93312 0.7207,-3.64249 1.17041,-5.55362c0.20068,1.0651 -0.61963,4.20119 -0.54346,5.78572l0.1084,0.03575c0.24316,-0.57409 0.31201,-1.01513 0.43652,-1.62277c0.01904,0.81542 -0.14941,1.75069 -0.11133,2.345l0.10254,0.0737c-0.49658,0.15634 -0.56543,0.15737 -1.08545,0.12279c-0.91113,-0.33452 -1.47949,-0.37877 -2.44482,-0.50053c-1.26123,-0.26829 -5.03174,-1.24899 -5.95752,-0.70567c-0.2124,0.5864 -0.26074,1.55303 -0.32227,2.20228z" fill="#06b0d7"/><path d="M170.896,109.485c0.04248,-1.26642 0.31494,-2.47995 0.96094,-3.57904l-0.01318,0.13202c-0.09668,0.95813 -0.65918,3.16891 -0.5625,3.84c0.51563,0.61819 1.75781,0.39459 1.24365,1.40284c-1.19678,-1.37793 -7.24805,-1.69838 -7.85889,-3.40057l0.22266,-0.1411c0.53174,0.16777 0.97852,0.36177 1.48828,0.57658l0.18604,-0.10037c1.45459,0.3858 2.89893,0.80912 4.33301,1.26965z" fill="#1ab6e9"/><path d="M170.92529,92.2666c0.11572,-1.19155 0.72656,-5.33427 1.54834,-6.03086c-0.16113,1.74893 -0.86572,4.94759 -1.24365,6.76422c-0.76172,-0.19429 -1.69043,-0.45804 -2.45068,-0.5946c-0.5083,-0.2258 -0.91846,-0.17568 -1.64209,-0.48295c0.5376,0.08147 0.95508,0.20939 1.34619,-0.18521l-0.0293,-0.3691c-0.1875,-0.05495 -0.37939,-0.11282 -0.56836,-0.16528l-0.15967,-0.04293l0.08496,-0.13744l0.7002,0.0315c0.09814,0.43606 0.10254,0.48529 0.31494,0.87124z" fill="#43c6f8"/><path d="M171.02197,76.21352c-0.03516,-0.33701 0.09814,-1.31243 0.15967,-1.70629c0.21826,-1.37588 -0.37939,-3.1336 1.33887,-3.30885c-0.17285,0.95037 -0.59766,4.37702 -0.92139,4.8588z" fill="#43c6f8"/><path d="M172.75781,85.88481c-0.93018,0.03487 -3.97559,-0.12352 -4.26416,-1.14774l0.21826,-0.32822c0.73828,0.19986 3.68848,0.76164 3.99756,1.19624z" fill="#43c6f8"/><path d="M150.1626,125.40225c-0.0542,-0.31694 -0.03955,-0.3014 0.05127,-0.61468c0.46582,-0.34727 0.71338,-0.274 1.35645,-0.36016c-0.06152,0.52486 -0.10547,0.77937 -0.06445,1.31536c-0.60205,-0.04718 -0.79834,-0.03443 -1.34326,-0.34053z" fill="#43c6f8"/><path d="M168.64307,76.06787l0.79541,0.12044c0.18457,0.21114 0.14355,0.1814 0.26514,0.44471c-0.10693,0.45584 -0.13916,0.5017 -0.46729,0.8371l-0.31201,-0.00835c-0.35156,-0.52764 -0.24316,-0.68208 -0.28125,-1.3939z" fill="#43c6f8"/><path d="M152.18262,100.53637l0.09521,-0.35166c0.41309,-0.21041 0.49072,-0.11268 1.01221,-0.05114l3.15967,0.41174l1.12061,0.1307c0.71777,0.11165 1.33447,0.19283 2.05811,0.26272c0.83789,0.11092 1.96582,0.29437 2.7876,0.34184c-0.13037,1.05411 -0.56982,4.96972 -0.82471,5.77795c-0.02637,0.63285 0.01025,1.49207 -0.28711,2.0118c-0.45557,0.25437 -0.67969,0.13466 -1.17334,-0.04879l-0.94629,-0.01202c-0.65479,-0.23356 -6.45996,-0.93835 -7.43555,-1.06334c0.08936,0.42199 0.15234,0.5335 0.01611,0.92165c-0.83936,0.47064 -2.03906,0.09348 -2.97803,0.01377c-6.9249,-0.58347 -13.8208,0.25276 -20.75654,-0.22345c-1.37681,-0.09451 -2.79888,0.05216 -4.2438,-0.05934c-1.61938,-1.61911 -2.00493,-0.30419 -3.25151,-0.85058c-0.27583,-0.71431 -0.33223,-6.29431 -0.34556,-7.38314c2.3855,-0.08161 4.89053,-0.00366 7.29536,-0.02784c1.44243,-0.01451 3.21021,-0.16191 4.57427,-0.09949c3.5502,0.02095 7.41035,0.04923 10.93813,-0.02769c1.43423,-0.03121 8.49521,0.53423 9.18516,0.32631z" fill="#64dff9"/><path d="M120.1897,100.36508c2.3855,-0.08161 4.89053,-0.00366 7.29536,-0.02784c1.44243,-0.01451 3.21021,-0.16191 4.57427,-0.09949c-0.37939,0.03619 -1.44668,0.08528 -1.71006,0.27899c0.03896,1.12561 0.10269,1.96843 0.22954,3.08789l0.09082,-0.05026l-0.00469,-3.03675l10.03477,-0.00088c0.01655,2.47878 0.35244,5.51831 0.28901,7.8406c3.01348,-0.00894 7.95659,0.43005 10.44683,0.27151l0.05127,-0.14784c0.0791,-0.22755 0.14209,-0.32661 0.26221,-0.53482c0.08936,0.42199 0.15234,0.5335 0.01611,0.92165c-0.83936,0.47064 -2.03906,0.09348 -2.97803,0.01377c-6.9249,-0.58347 -13.8208,0.25276 -20.75654,-0.22345c-1.37681,-0.09451 -2.79888,0.05216 -4.2438,-0.05934c-1.61938,-1.61911 -2.00493,-0.30419 -3.25151,-0.85058c-0.27583,-0.71431 -0.33223,-6.29431 -0.34556,-7.38314z" fill="#50d9fa"/><path d="M152.18262,100.53637l0.09521,-0.35166c0.41309,-0.21041 0.49072,-0.11268 1.01221,-0.05114l3.15967,0.41174l1.12061,0.1307c0.71777,0.11165 1.33447,0.19283 2.05811,0.26272c0.83789,0.11092 1.96582,0.29437 2.7876,0.34184c-0.13037,1.05411 -0.56982,4.96972 -0.82471,5.77795c-0.02637,0.63285 0.01025,1.49207 -0.28711,2.0118c-0.45557,0.25437 -0.67969,0.13466 -1.17334,-0.04879l-0.07471,-0.2614c-0.375,-0.24323 -6.62842,-0.66098 -7.85889,-1.19419c-0.43652,-0.47313 -0.25488,-0.82216 -0.23145,-1.65809l-0.49219,1.46482c0.06445,-1.21309 0.13623,-5.99452 0.70898,-6.83631z" fill="#50d9fa"/><path d="M163.59229,83.01862c0.26074,-0.12 0.12744,-0.10403 0.41016,-0.04703c0.1377,0.41789 -1.67871,5.89957 -1.95117,6.59454l-0.18604,-0.10696c0.57715,-1.50306 0.74854,-5.41662 1.2583,-6.21445l0.56396,-0.03736z" fill="#43c6f8"/><path d="M169.15137,86.2986c0.39111,0.06242 0.42773,0.06843 0.79541,0.20939c0.58447,0.95725 0.21973,2.45548 0.03809,3.55706c-0.09229,-0.1077 -0.90381,-3.40878 -0.8335,-3.76645z" fill="#43c6f8"/><path d="M162.71631,98.74333c0.50098,-0.03311 0.28271,-0.09114 0.68848,0.12352c0.19775,0.8371 0.17725,1.02759 0.99023,1.3454l0.16406,0.06301l0.01318,0.17085l-0.62549,-0.1581l-0.27246,0.21144c-0.05273,-0.02388 -0.16846,-0.14433 -0.19629,-0.18184c-0.41016,-0.53526 -1.16162,-0.42405 -1.87646,-0.42302c0.45264,-0.599 0.71045,-0.46815 1.11475,-1.15125z" fill="#43c6f8"/><path d="M162.17871,108.87516c0.9624,0.08528 1.18213,0.12528 2.02148,0.51328l-0.27686,0.24001l0.06299,-0.12909l-0.09082,0.02579l0.08496,0.15429c-0.7002,0.29921 -0.73828,0.75051 -1.56885,0.31503c-0.25635,-0.46771 -0.23584,-0.57922 -0.23291,-1.11931z" fill="#43c6f8"/><path d="M168.77197,94.60969l0.24023,0.27356c0.14355,0.89205 0.0835,1.27829 0,2.18954l-0.24316,-0.24118c-0.13037,-0.87505 -0.06885,-1.33089 0.00293,-2.22192z" fill="#43c6f8"/><path d="M172.20117,57.86995c0.69141,-0.27122 1.62891,-0.19459 2.21924,0.27151c0.53467,0.66435 1.34912,0.74948 2.21631,0.94612c0.96533,0.20587 3.95508,1.25162 4.54102,1.12327c0.18311,1.17484 0.40137,6.99514 0.01172,7.75503l-0.2373,0.11883c-1.56152,-0.38214 -2.40674,-0.54053 -4.00781,-0.49672c-0.36035,0.02813 -0.99902,0.05846 -1.32715,0.1348l-0.2417,-0.43665c0.39258,-0.15913 2.19434,0.06769 2.75098,0.11722c-1.28613,-0.62977 -4.57471,-1.9126 -5.96777,-1.76065c0.16699,-1.60812 0.70605,-3.89041 0.65918,-5.48754c-0.01172,-0.38771 -0.1875,-0.00645 -0.69873,-0.28074c-0.20508,-0.60046 -0.01758,-1.35009 0.08203,-2.00447z" fill-opacity="0.97647" fill="#11a6f2"/><path d="M162.93604,123.29154c-0.37061,-0.18667 -0.76465,-0.32587 -0.98145,-0.66435c0.77197,-2.00916 1.56445,-4.01027 2.37744,-6.00316c0.33984,-0.14008 0.62402,-0.01333 1.0415,0.06183l1.19971,0.54141l1.76514,0.79388l0.2666,0.15546l0.8584,0.21378c0.44531,0.20015 1.16309,0.49365 1.57471,0.7108l0.35156,0.04073l0.6709,0.24353l0.27393,0.27884c-0.05273,0.58024 -0.17432,0.8245 -0.38232,1.35375c-0.1626,0.47152 -0.3252,1.03096 -0.56982,1.45515l-0.38525,0.87344l-1.02246,2.66662l-3.04541,-1.10349c-0.21094,-0.18829 -0.70312,-0.35987 -0.99023,-0.48119c-0.99463,-0.39445 -1.99658,-0.77351 -3.00293,-1.13704z" fill="#34a6f6"/><path d="M162.93604,123.29154c-0.37061,-0.18667 -0.76465,-0.32587 -0.98145,-0.66435c0.77197,-2.00916 1.56445,-4.01027 2.37744,-6.00316c0.33984,-0.14008 0.62402,-0.01333 1.0415,0.06183l1.19971,0.54141l1.76514,0.79388c-0.70166,0.27298 -0.77637,0.50874 -1.50879,0.77439c-0.39404,-0.08059 -0.54932,-0.08836 -0.84814,-0.35884c-0.15381,0.04747 -0.07031,0.0274 -0.25342,0.0548c0.32959,-0.20865 0.67236,-0.50024 0.76025,-0.89132c-0.56836,-0.0422 -1.30957,-0.02608 -1.75928,0.40661c-1.23779,1.19052 -1.61865,3.97554 -0.54199,5.35464c0.19922,0.25539 1.31396,0.53013 1.66846,0.62786l0.15381,0.36353l-0.07031,0.07575c-0.99463,-0.39445 -1.99658,-0.77351 -3.00293,-1.13704z" fill="#1ab6e9"/><path d="M165.85547,123.9893c1.06641,0.29862 3.47021,1.3983 3.89209,1.40386l0.16699,-0.18975c-0.27246,-0.46991 -0.60498,-0.19752 -1.25391,-0.71666l0.00732,-0.29144c1.41797,-0.5187 1.07227,0.21012 2.3291,-0.84868l-1.02246,2.66662l-3.04541,-1.10349c-0.21094,-0.18829 -0.70312,-0.35987 -0.99023,-0.48119l0.07031,-0.07575z" fill="#118daf"/><path d="M168.60498,118.17662l0.8584,0.21378c0.44531,0.20015 1.16309,0.49365 1.57471,0.7108c-0.4043,0.60544 -0.11133,0.74904 -0.52734,1.25602c-0.29297,-0.26345 -0.75146,-1.32166 -0.80273,-1.35654c-0.77197,-0.51899 -0.62256,-0.01582 -1.10303,-0.82406z" fill="#11a6f2"/><path d="M169.42383,121.84973c0.62256,0.44485 0.57715,1.19682 0.19629,1.78073c-0.35156,-0.14213 -0.34424,-0.13964 -0.63867,-0.37936c-0.06592,-0.63153 0.12598,-0.74904 0.44238,-1.40137z" fill="#118daf"/><path d="M164.27051,125.79127c0.28711,-0.55401 0.12891,-0.4576 0.59033,-0.63753c0.90088,0.09085 1.27441,0.59035 1.93652,0.76062c0.75,0.26638 1.44141,0.65922 2.14453,1.03257c0.62695,0.23737 2.18701,0.91242 2.78027,1.25265l0.27393,0.00645l0.20947,0.5442c-0.48633,1.00693 -2.06396,4.22991 -2.29395,5.12811l-0.25635,0.14433c-0.60791,-0.06183 -1.88818,-0.66581 -2.51221,-0.93c-0.25488,-0.22682 -2.45947,-1.10803 -2.89893,-1.29031l-0.50684,-0.31474c-0.50391,-0.17378 -1.46484,-0.51269 -1.72852,-0.93073l0.52881,-1.20063l0.35742,-0.57116l0.01904,-0.2236c0.28711,-0.39328 0.68555,-1.25089 0.91846,-1.71758z" fill="#0c90b4"/><path d="M164.27051,125.79127c0.28711,-0.55401 0.12891,-0.4576 0.59033,-0.63753c0.90088,0.09085 1.27441,0.59035 1.93652,0.76062c0.75,0.26638 1.44141,0.65922 2.14453,1.03257c-0.71484,0.05436 -0.85547,-0.02418 -1.51758,-0.27298c-0.48047,-0.26008 -0.646,-0.38434 -1.19238,-0.47855c-0.54199,0.20015 -0.52441,0.29408 -0.67236,0.84707c-0.66357,0.07898 -1.13818,0.02227 -1.54541,0.43064c0.04541,0.32045 0.06592,0.51943 0.08496,0.84252c-0.53174,0.49467 -0.64453,0.154 -1.18506,0.24587c0.28711,-0.39328 0.68555,-1.25089 0.91846,-1.71758z" fill="#34a6f6"/><path d="M162.89502,128.78509l0.31934,0.1836c0.0293,1.26613 -0.48779,1.32371 0.38232,2.16682c0.06152,0.05993 0.12451,0.11913 0.18896,0.17759l-0.04834,0.17451c-0.50391,-0.17378 -1.46484,-0.51269 -1.72852,-0.93073l0.52881,-1.20063z" fill="#34a6f6"/><path d="M165.29883,133.53267l1.17041,0.51841c1.49854,0.75739 2.98389,1.54087 4.45459,2.34998l1.1001,0.59299c-0.65918,1.67083 -1.81787,3.73729 -2.63086,5.38746l-1.38867,-0.72061l-1.54248,-0.82567c-0.84521,-0.5442 -2.81104,-1.392 -3.88184,-1.97575l-0.54199,-0.25789c0.71338,-0.77014 1.20264,-1.86894 1.66992,-2.81462c0.39697,-0.78289 0.8042,-1.55991 1.22461,-2.33049z" fill="#118daf"/><path d="M172.19238,52.87473c1.26416,0.32206 8.07129,2.08521 9.00146,2.13371c0.03223,1.02085 0.27979,3.68425 -0.23584,4.42376l-0.5874,0.17495c-1.35059,-0.23561 -2.20166,-0.39122 -3.51562,-0.78172c-0.81445,-0.21803 -1.62598,-0.44617 -2.43457,-0.68398c-0.59033,-0.4661 -1.52783,-0.54273 -2.21924,-0.27151c0.13623,-1.35536 0.61084,-3.93774 -0.00879,-4.99521z" fill="#11a6f2"/><path d="M173.59277,121.0349c0.54199,-0.52002 2.521,-3.08876 3.06152,-3.76542c1.2583,0.68765 3.59473,2.5705 4.56445,3.64117l-0.03223,0.67475c-0.49951,0.77996 -0.72217,1.06275 -1.34473,1.75304l-1.33301,1.71802l-0.81445,-0.58112c-0.46875,-0.44412 -1.60693,-1.23917 -2.16797,-1.65442c-0.55811,-0.45379 -1.6084,-1.2106 -1.93359,-1.786z" fill="#0d5e94"/><path d="M176.49316,126.53782l0.40576,-0.3776c0.63135,0.1014 0.93896,0.51812 1.46484,0.98099l0.49951,0.46302l0.72217,0.68852l1.44287,1.4213l0.16553,0.18506l-0.00732,0.09612c-0.80859,1.0229 -2.02734,2.27203 -2.96924,3.17009c-1.40039,-1.23272 -2.79932,-2.6127 -4.1543,-3.90638c0.50244,-0.79373 1.74316,-2.01957 2.43018,-2.72113z" fill="#0d5e94"/><path d="M162.58008,138.85947c1.0708,0.58376 3.03662,1.43156 3.88184,1.97575c-0.29004,0.34741 -0.54053,0.6264 -0.77783,1.0144c-1.18945,0.31635 -2.08008,3.54578 -3.03076,4.16514c-0.39404,0.17231 -0.41455,0.18799 -0.83643,0.21188l-0.20068,-0.25701l0.54346,-2.12624l-1.48828,-0.43489c0.72656,-0.75681 1.8457,-2.65519 0.92725,-3.56981c-0.0835,0.60281 -0.01172,1.11272 -0.32373,1.60695l-0.16846,-0.1203c-0.00146,-0.41379 0.31348,-1.70395 0.64453,-2.0584c0.29883,-0.04044 0.44678,-0.03546 0.74561,0.01348z" fill-opacity="0.72941" fill="#0c90b4"/><path d="M181.06201,118.44754l1.21143,0.41628c0.00439,5.4575 0.1377,10.95545 -0.0791,16.40503c-0.00732,0.19371 -0.42334,0.47196 -0.56982,0.55885c-0.74268,-0.4598 -0.45117,-4.83272 -0.43799,-5.83246l0.00732,-0.09612c0.14941,-2.14235 0.00586,-6.04141 -0.00732,-8.31373l0.03223,-0.67475c0.06445,-0.77981 0.08789,-1.72197 -0.15674,-2.4631z" fill="#118daf"/><path d="M161.25,124.18095c0.77344,-0.64559 0.16992,-0.67519 0.63135,-1.02803c0.44238,0.10022 0.59766,0.11136 1.05469,0.13861c1.00635,0.36353 2.0083,0.74259 3.00293,1.13704c0.28711,0.12132 0.7793,0.29291 0.99023,0.48119l0.14063,0.42199c-0.15381,0.26228 -0.19629,0.28792 -0.27246,0.58259c-0.66211,-0.17026 -1.03564,-0.66977 -1.93652,-0.76062c-0.46143,0.17993 -0.30322,0.08352 -0.59033,0.63753l-0.43799,1.05264c-0.23291,0.46668 -0.63135,1.3243 -0.91846,1.71758l-0.01904,0.2236l-0.35742,0.57116l-0.34131,-0.70171c-0.18604,-0.86333 0.22266,-1.00341 -0.22266,-1.86132c-0.69873,-0.15576 -1.31104,-0.27811 -2.01562,-0.39386l0.2666,-0.06667l0.08496,-0.16528c-0.2168,-0.18184 -0.09521,-0.10594 -0.45703,-0.12337l0.00146,-0.21759c0.62256,0.07312 0.64014,0.18843 1.06494,-0.10433c0.15967,-0.51416 0.2124,-0.90685 0.29883,-1.43317z" fill-opacity="0.87451" fill="#0c90b4"/><path d="M174.87744,116.54036c2.05664,0.64926 4.11914,1.28489 6.18457,1.90718c0.24463,0.74113 0.22119,1.68329 0.15674,2.4631c-0.96973,-1.07066 -3.30615,-2.95352 -4.56445,-3.64117c-0.54053,0.67666 -2.51953,3.2454 -3.06152,3.76542l-0.20801,-0.22125c-0.59473,0.2403 -0.50391,0.41423 -1.05322,0.64105l-0.37939,-0.43665c0.20801,-0.52925 0.32959,-0.77351 0.38232,-1.35375l-0.27393,-0.27884l0.07178,-0.14623c0.2373,-0.43005 0.06299,-1.18876 0.08057,-1.86689c0.90967,0.68398 1.87793,0.34507 2.45215,-0.55372z" fill-opacity="0.55686" fill="#0c90b4"/><path d="M161.82129,114.70381c0.76025,0.24748 1.76074,0.60559 2.52246,0.77117l0.14063,0.22961c0.2124,0.65878 0.21387,0.49789 0.88916,0.98128c-0.41748,-0.07517 -0.70166,-0.20191 -1.0415,-0.06183c-0.81299,1.9929 -1.60547,3.994 -2.37744,6.00316c0.2168,0.33847 0.61084,0.47767 0.98145,0.66435c-0.45703,-0.02725 -0.6123,-0.03839 -1.05469,-0.13861c-0.46143,0.35283 0.14209,0.38243 -0.63135,1.02803c0.00146,-0.31342 0.53467,-3.32658 0.62109,-3.9096c0.06152,-0.14799 0.3999,-1.75201 0.45264,-1.99173c-1.8501,-0.46302 -6.29297,-1.04048 -7.75049,-1.77414c1.19971,0.42141 5.14453,0.74377 6.62109,0.91696c0.05713,-0.54024 0.14063,-1.06685 0.22119,-1.60358c0.31348,-0.44383 0.30029,-0.56222 0.40576,-1.11506z" fill-opacity="0.98039" fill="#118daf"/><path d="M181.19385,55.00844c0.59326,0.14198 0.58447,0.04103 0.96094,0.445c0.47168,1.94689 -0.19629,11.86889 0.25928,13.02586c-0.37207,-0.14711 -1.05029,-0.29173 -1.46191,-0.39459l0.2373,-0.11883c0.38965,-0.75988 0.17139,-6.58018 -0.01172,-7.75503c-0.0249,-0.19825 -0.05713,-0.22111 -0.1377,-0.41071l-0.66943,-0.19297l0.5874,-0.17495c0.51563,-0.73952 0.26807,-3.40292 0.23584,-4.42376z" fill="#34a6f6"/><path d="M161.77002,130.2905l0.23877,0.26638c0.26367,0.41804 1.22461,0.75695 1.72852,0.93073l0.50684,0.31474c-0.08203,0.91754 0.63721,1.06949 1.05469,1.73032l-0.36621,-0.07619c-1.89404,0.21202 -0.91553,0.81439 -2.29102,0.84795c-0.54639,-0.50991 -0.63867,-0.73278 -1.37402,-0.32734l-0.13037,0.31606c0.19043,0.44646 0.40869,0.48764 0.89502,0.62728l0.1084,0.14198l-0.06299,0.23576c-0.1084,-0.00747 -5.98828,-1.44431 -5.9502,-1.41632c0.29883,-0.15605 1.92188,0.1707 2.54443,0.217c-0.75732,-0.40016 -2.08301,-0.39078 -2.44775,-0.83564c1.29932,0.20133 3.11865,0.70201 4.396,1.03403c0.1626,-0.45628 0.21973,-0.79124 0.31348,-1.26115c0.31787,-0.97879 0.35596,-1.7419 0.83643,-2.7456z" fill="url(#color-3)"/><path d="M162.65332,146.01477c0.95068,-0.61936 1.84131,-3.84879 3.03076,-4.16514c0.2124,0.12015 0.98291,0.57438 1.16309,0.64149c0.45264,0.28748 1.34033,0.78084 1.61133,1.1873c-0.84961,0.61131 -4.53516,2.83557 -5.45654,3.26064c-0.4248,-0.29598 -0.32373,-0.45848 -0.34863,-0.92429z" fill="#118daf"/><path d="M177.31201,134.59587c0.97705,0.79534 1.51172,1.42467 2.21924,2.45387c-1.04004,0.62933 -2.06104,1.28708 -3.06445,1.97253c-0.9668,-0.17583 -1.33887,-0.94714 -1.98486,-1.78703c0.53906,-0.63387 2.14307,-2.01766 2.83008,-2.63937z" fill="#0d5e94"/><path d="M171.38232,122.4732l0.14502,0.06535c-0.01172,1.22173 -0.13623,4.72326 0.19482,5.66103c-0.59326,-0.34023 -2.15332,-1.01528 -2.78027,-1.25265c-0.70312,-0.37335 -1.39453,-0.76618 -2.14453,-1.03257c0.07617,-0.29466 0.11865,-0.32031 0.27246,-0.58259l-0.14062,-0.42199l3.04541,1.10349l1.02246,-2.66662z" fill-opacity="0.38039" fill="#0c90b4"/><path d="M179.8418,123.33843c0.55664,1.51698 0.32666,2.56699 -0.2417,4.04455c-0.33691,0.28719 -0.19922,0.20235 -0.73682,0.22125l-0.49951,-0.46302c-0.01172,-0.24411 -0.08643,-0.3121 -0.20947,-0.54259l0.19189,-0.06037l0.21973,-0.01187l0.14063,-0.21422c-0.03223,-1.2528 -1.65674,-1.53559 -2.71143,-1.6282c-1.09424,-0.09612 -1.53223,1.13631 -2.24268,1.84432c0.26074,-2.95191 1.87354,-2.21195 3.94189,-2.05297l0.81445,0.58112z" fill-opacity="0.38824" fill="#106f9b"/><path d="M173.37305,123.19967c0.00439,-0.06432 0.1084,-0.26726 0.14063,-0.3376c0.58447,-0.04542 1.35791,-0.00645 2.0127,-0.04117c0.56104,0.41525 1.69922,1.2103 2.16797,1.65442c-2.06836,-0.15898 -3.68115,-0.89894 -3.94189,2.05297l-0.30762,0.21349c-0.34863,-0.12982 -0.92725,0.13627 -1.2583,0.2954l-0.20215,-0.0592l-0.03369,-0.28294c1.5791,-1.29631 1.40039,-1.43918 1.42236,-3.49537z" fill-opacity="0.44706" fill="#0c90b4"/><path d="M172.15869,65.6427c1.39307,-0.15195 4.68164,1.13089 5.96777,1.76065c-0.55664,-0.04953 -2.3584,-0.27635 -2.75098,-0.11722c-0.19629,0.09817 -1.34326,0.69028 -1.4707,0.70406c0.15381,-0.31313 0.0249,-0.69175 -0.28857,-0.84633c-0.31201,-0.15444 -0.69141,-0.02623 -0.84668,0.28646c-0.15381,0.31269 -0.02637,0.69175 0.28564,0.84707l-0.41309,0.11737l-0.51562,-0.20499l-0.10254,-0.0737c-0.03809,-0.59431 0.13037,-1.52958 0.11133,-2.345z" fill-opacity="0.92941" fill="#1ab6e9"/><path d="M171.95215,121.01805l0.37939,0.43665c0.54932,-0.22682 0.4585,-0.40075 1.05322,-0.64105l0.20801,0.22125c0.3252,0.57541 1.37549,1.33221 1.93359,1.786c-0.65479,0.03473 -1.42822,-0.00425 -2.0127,0.04117c-0.03223,0.07033 -0.13623,0.27327 -0.14062,0.3376c-0.42627,0.75241 -0.53467,1.20137 -1.44434,1.32621c-0.02637,-0.53511 0.03955,-1.85121 -0.17871,-2.16873l-0.22266,0.1814l-0.14502,-0.06535c0.24463,-0.42419 0.40723,-0.98363 0.56982,-1.45515z" fill-opacity="0.57255" fill="#118daf"/><path d="M166.46924,134.05108c0.28271,-0.28133 0.46289,-0.61702 0.67383,-0.95843c0.62402,0.26419 1.9043,0.86817 2.51221,0.93l0.25635,-0.14433c1.22021,0.38214 1.30811,1.4339 1.01221,2.52274c-1.4707,-0.80912 -2.95605,-1.59259 -4.45459,-2.34998z" fill-opacity="0.25882" fill="#118daf"/><path d="M179.8418,123.33843c0.62256,-0.69028 0.84521,-0.97308 1.34473,-1.75304c0.01318,2.27232 0.15674,6.17138 0.00732,8.31373l-0.16553,-0.18506c0.13916,-0.64134 0.36182,-2.47189 -0.29297,-2.78355c-0.58154,0.27708 -0.75439,0.76736 -1.1499,1.36225l-0.72217,-0.68852c0.5376,-0.0189 0.3999,0.06594 0.73682,-0.22125c0.56836,-1.47757 0.79834,-2.52757 0.2417,-4.04455z" fill-opacity="0.34118" fill="#106f9b"/><path d="M172.59082,128.36471c0.66064,-0.92883 0.90527,-0.65072 1.64063,-1.29031c0.41016,-0.3562 0.19043,-1.57662 1.0708,-1.7737c0.93896,-0.21056 1.94971,-0.19678 2.79639,0.29393c0.31201,0.47299 0.22119,0.27312 0.24756,0.94363l-0.19189,0.06037c0.12305,0.23049 0.19775,0.29847 0.20947,0.54259c-0.52588,-0.46288 -0.8335,-0.87959 -1.46484,-0.98099l-0.40576,0.3776l-0.30176,-0.24616c-1.82959,0.61336 -2.04199,1.92388 -3.60059,2.07305z" fill-opacity="0.29804" fill="#0c90b4"/><path d="M173.75244,126.5283c0.71045,-0.70801 1.14844,-1.94044 2.24268,-1.84432c1.05469,0.0926 2.6792,0.3754 2.71143,1.6282l-0.14062,0.21422l-0.21973,0.01187c-0.02637,-0.6705 0.06445,-0.47064 -0.24756,-0.94363c-0.84668,-0.49072 -1.85742,-0.50449 -2.79639,-0.29393c-0.88037,0.19708 -0.66064,1.41749 -1.0708,1.7737c-0.73535,0.63959 -0.97998,0.36148 -1.64062,1.29031l-0.20947,0.09641l-0.07178,0.21012l-0.104,0.07898l-0.20947,-0.5442c-0.15381,-0.40851 -0.06152,-0.78186 -0.01172,-1.22803l0.20215,0.0592c0.33105,-0.15913 0.90967,-0.42522 1.2583,-0.2954z" fill-opacity="0.32941" fill="#118daf"/><path d="M164.48438,115.70458c1.83398,0.74626 3.70313,1.00429 5.58545,1.81091l-0.42187,0.44192l-0.18457,0.43298l-0.8584,-0.21378l-0.2666,-0.15546l-1.76514,-0.79388l-1.19971,-0.54141c-0.67529,-0.48339 -0.67676,-0.3225 -0.88916,-0.98128z" fill-opacity="0.77647" fill="#11a6f2"/><path d="M162.03809,138.60159l0.54199,0.25789l-0.0835,0.42097c-0.29883,-0.04894 -0.44678,-0.05392 -0.74561,-0.01348c-0.33105,0.35445 -0.646,1.64461 -0.64453,2.0584l0.16846,0.1203c0.31201,-0.49423 0.24023,-1.00414 0.32373,-1.60695c0.91846,0.91461 -0.20068,2.813 -0.92725,3.56981l-0.61816,-0.13979c-0.35303,-0.15708 -1.021,-0.30668 -1.41943,-0.41144l0.05713,-0.26521c0.6167,-0.29759 0.83496,-0.14198 1.62891,-0.14066c0.33838,-0.36016 0.74854,-2.72377 1.15869,-3.65655z" fill-opacity="0.82353" fill="#118daf"/><path d="M170.06982,117.51549c0.62695,-0.14916 0.61816,-1.38511 1.18066,-2.17356l0.76758,0.28778c0.34717,0.62933 -0.31787,2.36859 0.11426,3.60952l-0.07178,0.14623l-0.6709,-0.24353c0.12305,-0.43035 0.18164,-0.74933 -0.02197,-1.12752c-0.40869,-0.18667 -0.91113,-0.00967 -1.57764,-0.04791l-0.14209,-0.00908z" fill-opacity="0.65882" fill="#34a6f6"/><path d="M172.07666,115.60699c0.65479,0.21158 2.23975,0.67739 2.80078,0.93337l-0.2124,0.27825c-0.57422,0.89879 -1.54248,1.2377 -2.45215,0.55372c-0.01758,0.67812 0.15674,1.43683 -0.08057,1.86689c-0.43213,-1.24093 0.23291,-2.98019 -0.11426,-3.60952z" fill-opacity="0.58431" fill="#11a6f2"/><path d="M162.14063,135.0624c0.69727,0.1077 1.2334,0.04806 1.56738,0.72457c-0.46729,0.94568 -0.95654,2.04448 -1.66992,2.81462l-0.55957,0.19327c0.21094,-0.90069 0.72363,-2.67673 0.59912,-3.49669z" fill="url(#color-4)"/><path d="M172.59082,128.36471c1.55859,-0.14916 1.771,-1.45969 3.60059,-2.07305l0.30176,0.24616c-0.68701,0.70157 -1.92773,1.9274 -2.43018,2.72113c-0.23877,-0.40807 -1.16748,-0.05348 -1.75342,-0.58772l0.07178,-0.21012z" fill-opacity="0.21177" fill="#106f9b"/><path d="M164.24414,131.80235c0.43945,0.18228 2.64404,1.06348 2.89893,1.29031c-0.21094,0.34141 -0.39111,0.6771 -0.67383,0.95843l-1.17041,-0.51841c-0.41748,-0.66083 -1.13672,-0.81278 -1.05469,-1.73032z" fill-opacity="0.66667" fill="#0c90b4"/><path d="M162.6416,134.30443c1.37549,-0.03355 0.39697,-0.63592 2.29102,-0.84795c-0.42041,0.77058 -0.82764,1.54761 -1.22461,2.33049c-0.33398,-0.67651 -0.87012,-0.61687 -1.56738,-0.72457l-0.1084,-0.14198z" fill-opacity="0.76078" fill="#118daf"/><path d="M173.37305,123.19967c-0.02197,2.0562 0.15674,2.19906 -1.42236,3.49537l-0.02197,-2.16917c0.90967,-0.12484 1.01807,-0.5738 1.44434,-1.32621z" fill-opacity="0.45882" fill="#118daf"/><path d="M179.58545,128.29276c0.39551,-0.59489 0.56836,-1.08517 1.1499,-1.36225c0.65479,0.31166 0.43213,2.14221 0.29297,2.78355z" fill-opacity="0.23137" fill="#106f9b"/><path d="M168.00439,141.6609l1.38867,0.72061c-0.15234,0.21378 -0.79834,1.15111 -0.93457,1.2969c-0.271,-0.40646 -1.15869,-0.89982 -1.61133,-1.1873c0.78662,0.08411 0.79834,-0.23239 1.15723,-0.83022z" fill-opacity="0.45098" fill="#0c90b4"/><path d="M165.68408,141.84963c0.2373,-0.388 0.48779,-0.66699 0.77783,-1.0144l1.54248,0.82567c-0.35889,0.59783 -0.37061,0.91432 -1.15723,0.83022c-0.18018,-0.06711 -0.95068,-0.52134 -1.16309,-0.64149z" fill-opacity="0.49804" fill="#0c90b4"/><path d="M171.52734,122.53855l0.22266,-0.1814c0.21826,0.31752 0.15234,1.63362 0.17871,2.16873l0.02197,2.16917l0.03369,0.28294c-0.0498,0.44617 -0.14209,0.81952 0.01172,1.22803l-0.27393,-0.00645c-0.33105,-0.93777 -0.20654,-4.43929 -0.19482,-5.66103z" fill-opacity="0.78039" fill="#118daf"/><path d="M161.1416,147.94569c0.14502,-0.69014 0.26514,-1.30115 0.47461,-1.97605l0.20068,0.25701c0.42188,-0.02388 0.44238,-0.03956 0.83643,-0.21188c0.0249,0.46581 -0.07617,0.6283 0.34863,0.92429c-0.62402,0.32822 -1.24512,0.66376 -1.86035,1.00663z" fill-opacity="0.82745" fill="#118daf"/><path d="M176.85498,58.82544c1.31396,0.39049 2.16504,0.5461 3.51563,0.78172l0.66943,0.19297c0.08057,0.1896 0.11279,0.21246 0.1377,0.41071c-0.58594,0.12836 -3.57568,-0.9174 -4.54102,-1.12327z" fill-opacity="0.62353" fill="#118daf"/><path d="M169.64795,117.95741l0.14209,0.00908c0.6665,0.03824 1.16895,-0.13876 1.57764,0.04791c0.20361,0.37818 0.14502,0.69717 0.02197,1.12752l-0.35156,-0.04073c-0.41162,-0.21715 -1.12939,-0.51064 -1.57471,-0.7108z" fill-opacity="0.66275" fill="#11a6f2"/><path d="M173.05518,68.27738c-0.31201,-0.15532 -0.43945,-0.53438 -0.28564,-0.84707c0.15527,-0.31269 0.53467,-0.4409 0.84668,-0.28646c0.31348,0.15458 0.44238,0.53321 0.28857,0.84633c-0.01904,0.0381 -0.04248,0.07414 -0.06738,0.1077c-0.18457,0.23869 -0.5127,0.31371 -0.78223,0.17949z" fill-opacity="0.93333" fill="#1ab6e9"/><path d="M162.03223,134.92042c-0.48633,-0.13964 -0.70459,-0.18081 -0.89502,-0.62728l0.13037,-0.31606c0.73535,-0.40544 0.82764,-0.18257 1.37402,0.32734z" fill-opacity="0.8" fill="#0c90b4"/><path d="M174.42041,58.14146c0.80859,0.23781 1.62012,0.46595 2.43457,0.68398l-0.21826,0.26213c-0.86719,-0.19664 -1.68164,-0.28177 -2.21631,-0.94612z" fill-opacity="0.83922" fill="#34a6f6"/><path d="M162.19629,128.65453l0.34131,0.70171l-0.52881,1.20063l-0.23877,-0.26638c0.26221,-0.69673 0.30322,-0.90289 0.42627,-1.63596z" fill-opacity="0.40392" fill="#34a6f6"/></g></svg></svg>