<?xml version="1.0" standalone="no"?>
<!DOCTYPE svg PUBLIC "-//W3C//DTD SVG 20010904//EN"
 "http://www.w3.org/TR/2001/REC-SVG-20010904/DTD/svg10.dtd">
<svg version="1.0" xmlns="http://www.w3.org/2000/svg"
 width="1408.000000pt" height="768.000000pt" viewBox="0 0 1408.000000 768.000000"
 preserveAspectRatio="xMidYMid meet">

<g transform="translate(0.000000,768.000000) scale(0.100000,-0.100000)"
fill="#000000" stroke="none">
<path d="M8721 7077 c-5 -5 -31 -11 -58 -13 -133 -11 -202 -24 -213 -43 -6
-10 -10 -11 -10 -3 0 15 -83 9 -88 -6 -1 -5 -19 -8 -39 -6 -21 1 -42 0 -48 -4
-5 -4 -21 -7 -35 -8 -77 -5 -161 -16 -191 -25 -35 -10 -159 -39 -194 -44 -11
-2 -45 -9 -75 -15 -139 -28 -460 -82 -505 -85 -27 -2 -51 -8 -53 -14 -2 -6
-14 -11 -26 -11 -29 0 -59 -32 -50 -53 3 -9 21 -26 40 -37 18 -12 33 -25 31
-29 -4 -15 167 -202 218 -239 27 -20 52 -39 55 -42 3 -3 22 -16 42 -30 21 -14
38 -30 38 -37 0 -6 -20 -23 -43 -37 -66 -38 -153 -128 -247 -256 -97 -131
-118 -161 -142 -210 -10 -19 -21 -42 -26 -50 -29 -49 -132 -267 -132 -278 0
-7 -7 -24 -16 -37 -9 -14 -14 -34 -11 -44 3 -12 -1 -22 -11 -26 -8 -3 -12 -8
-9 -12 3 -3 -1 -22 -9 -42 -18 -41 -46 -136 -49 -166 -1 -11 -6 -28 -10 -37
-4 -10 -5 -24 -2 -32 3 -8 1 -16 -5 -18 -6 -2 -12 -28 -14 -58 -6 -79 -21 -90
-125 -95 -89 -4 -199 -19 -314 -42 -133 -27 -130 -27 -161 2 -16 14 -42 38
-59 53 -58 53 -175 132 -195 132 -11 0 -20 5 -20 11 0 13 -61 74 -107 107 -27
19 -31 27 -23 42 6 10 10 21 10 24 0 7 -63 20 -90 17 -14 -1 -39 3 -55 10 -17
7 -34 13 -40 14 -5 0 -23 6 -38 13 -16 7 -31 12 -34 12 -3 0 -17 8 -31 19 -49
34 -110 35 -234 5 -77 -19 -119 -34 -131 -48 l-18 -21 6 21 c5 20 4 20 -59 5
-36 -8 -62 -19 -59 -24 3 -6 1 -7 -5 -3 -10 6 -43 2 -151 -20 -13 -3 -38 -11
-56 -18 -35 -15 -77 -23 -175 -32 -36 -3 -69 -8 -74 -11 -4 -3 -34 -7 -65 -8
-77 -4 -166 -21 -296 -57 -68 -19 -130 -30 -162 -29 -50 2 -53 1 -53 -23 0
-14 5 -28 10 -31 6 -4 0 -18 -15 -37 -14 -16 -25 -34 -25 -39 0 -5 -14 -22
-32 -38 -23 -21 -35 -43 -44 -82 -6 -30 -21 -79 -33 -109 -11 -30 -21 -74 -21
-97 0 -23 -4 -45 -10 -48 -19 -11 -11 -57 10 -62 18 -5 20 -14 20 -77 1 -39 5
-102 11 -141 19 -134 22 -181 11 -170 -6 6 -16 57 -24 114 -12 94 -16 105 -36
112 -24 9 -24 8 -19 -53 2 -35 11 -99 20 -143 20 -106 27 -145 31 -175 1 -14
6 -41 11 -60 5 -19 8 -43 6 -52 -1 -10 3 -18 9 -18 6 0 9 -8 6 -17 -3 -10 -2
-34 3 -53 5 -25 12 -34 24 -32 9 2 17 -2 17 -8 0 -5 -5 -10 -11 -10 -8 0 -10
-14 -6 -42 12 -90 19 -113 35 -126 13 -10 14 -15 4 -21 -10 -6 -10 -16 2 -52
16 -50 33 -125 41 -184 3 -22 12 -83 20 -135 22 -150 25 -172 30 -230 3 -30
10 -86 16 -124 6 -38 13 -90 15 -115 2 -25 6 -59 7 -76 2 -16 7 -67 12 -113 4
-47 14 -89 21 -97 17 -16 18 -29 3 -19 -9 5 -10 -6 -4 -42 4 -27 11 -76 14
-108 6 -57 7 -59 24 -42 16 17 17 16 17 -3 0 -12 9 -30 20 -41 12 -12 20 -34
20 -52 0 -18 5 -51 10 -73 14 -58 50 -331 52 -388 0 -27 -4 -53 -11 -60 -8 -8
-11 -7 -12 4 0 7 -2 34 -4 59 -2 25 -4 54 -5 65 0 11 -6 45 -12 75 -6 30 -11
61 -9 68 1 6 -2 12 -6 12 -5 0 -7 24 -6 53 2 49 -15 137 -27 137 -3 0 -4 18
-2 39 4 36 2 39 -17 34 -24 -6 -28 -31 -6 -39 11 -5 13 -10 5 -19 -6 -7 -8
-19 -6 -26 3 -8 7 -45 11 -84 8 -94 14 -140 24 -188 5 -22 7 -46 4 -53 -3 -8
-1 -14 3 -14 5 0 10 -15 11 -32 1 -35 25 -187 44 -278 59 -292 69 -331 80
-324 5 3 9 0 9 -5 0 -6 -4 -11 -10 -11 -5 0 -10 -7 -10 -15 0 -8 4 -15 10 -15
5 0 7 -6 4 -14 -8 -20 15 -96 29 -96 9 0 9 -2 1 -8 -9 -5 -9 -25 0 -77 14 -78
21 -95 40 -95 17 0 28 -68 20 -119 -5 -33 -3 -41 14 -50 17 -9 23 -7 36 11 9
12 16 33 16 45 0 26 15 31 24 8 3 -8 14 -15 25 -15 11 0 23 -5 26 -10 4 -6 16
-8 27 -5 14 5 21 1 25 -15 5 -18 11 -21 32 -16 14 3 64 8 111 11 142 9 291 28
312 41 4 3 20 7 35 9 24 3 94 16 213 40 42 8 95 19 100 20 3 1 23 5 45 10 22
4 49 10 60 12 11 3 36 7 55 10 38 5 80 22 93 38 6 6 10 6 14 -2 5 -14 33 -18
33 -5 0 4 21 8 48 9 26 1 60 8 76 16 16 9 34 13 41 10 8 -2 22 0 33 6 13 7 22
7 30 -1 8 -8 14 -5 21 13 5 13 10 18 10 12 1 -16 31 -17 31 -2 0 6 7 9 15 5
10 -3 15 1 15 12 1 16 1 16 14 0 15 -21 36 -24 36 -5 0 8 3 7 10 -3 8 -12 10
-12 16 4 5 14 9 15 15 4 8 -11 11 -11 18 1 5 7 14 10 20 7 6 -4 11 -1 11 6 0
10 3 9 11 -2 7 -10 12 -11 15 -4 3 7 14 10 24 7 11 -3 20 -1 20 4 0 6 19 11
43 11 23 1 60 4 82 6 134 14 193 19 213 19 12 -1 22 4 22 10 0 6 3 7 6 4 4 -3
15 -2 26 4 12 6 24 7 31 1 7 -5 35 -8 62 -7 73 4 75 4 75 13 0 5 -19 7 -42 6
-65 -3 -21 16 86 38 50 10 94 24 98 31 6 9 8 9 8 0 0 -10 7 -10 28 -2 15 6 45
13 67 15 22 3 51 9 65 14 14 5 81 19 150 31 69 11 145 25 170 30 82 16 95 18
158 24 35 3 68 8 73 11 5 3 42 8 82 10 39 3 119 12 177 21 58 9 119 17 135 18
17 2 60 8 96 14 36 6 90 13 120 16 30 4 63 9 74 12 11 3 29 7 40 9 82 11 111
16 195 34 52 11 120 25 150 30 30 6 96 20 145 31 50 10 126 21 170 23 44 2
112 9 150 15 132 20 160 23 237 23 61 0 80 3 93 18 14 15 14 21 3 39 -8 13
-19 19 -28 15 -33 -12 -66 -14 -80 -4 -13 9 -11 14 11 33 14 12 29 30 33 41 4
11 12 16 22 12 12 -5 14 -1 8 16 -5 16 -3 20 8 16 8 -3 22 0 33 8 10 8 29 14
42 14 18 0 23 5 23 28 0 15 7 40 15 55 15 29 40 104 55 165 5 20 4 35 -2 38
-7 4 -4 10 6 16 10 6 16 22 16 43 0 35 -14 55 -23 33 -3 -7 -4 -3 -4 10 1 25
8 27 25 10 9 -9 12 -6 12 14 0 15 5 30 11 33 6 4 8 14 5 22 -4 8 -1 34 5 57 7
22 13 59 14 81 2 22 7 51 13 65 5 14 15 57 22 95 12 74 16 94 56 275 14 63 29
146 34 184 5 38 16 98 25 133 9 34 15 69 14 75 -1 7 3 26 9 41 17 41 15 87 -3
87 -8 0 -15 7 -15 15 0 8 9 15 19 15 21 0 24 9 40 130 6 41 15 91 21 110 5 19
10 52 10 72 0 20 4 39 9 42 5 3 9 16 9 28 0 13 21 102 46 198 25 96 50 193 55
215 16 62 42 203 53 280 5 39 13 79 18 90 20 46 20 62 0 80 -12 10 -20 31 -20
48 0 17 -11 45 -27 65 -27 36 -37 85 -22 113 5 10 3 23 -5 35 -12 15 -16 16
-30 5 -20 -17 -20 -30 1 -53 9 -10 12 -18 6 -18 -5 0 -19 14 -31 30 -13 17
-29 30 -37 30 -7 0 -27 11 -44 25 -26 22 -36 25 -78 20 -26 -3 -62 -7 -79 -9
-17 -2 -35 -5 -40 -8 -5 -3 -45 -1 -89 3 -59 6 -109 4 -190 -8 -60 -8 -113
-18 -117 -22 -4 -3 -28 -5 -53 -3 -41 4 -45 6 -45 31 0 14 -7 59 -15 99 -44
208 -53 230 -131 315 l-50 55 -140 12 c-76 6 -146 16 -155 20 -21 12 -119 2
-138 -13 -12 -10 -13 -9 -6 2 6 11 2 12 -21 7 -16 -4 -63 -14 -104 -21 -42 -7
-102 -20 -135 -28 -33 -9 -82 -18 -110 -22 -113 -13 -268 -34 -400 -54 -77
-12 -151 -24 -165 -26 -14 -2 -32 -6 -40 -9 -8 -3 -28 -8 -43 -10 -33 -6 -47
16 -29 45 7 10 12 24 12 31 0 28 73 247 102 303 74 147 257 371 295 363 12 -3
229 -229 327 -342 54 -63 61 -67 90 -62 38 8 46 16 50 52 2 16 5 29 6 29 1 0
3 9 5 20 5 28 64 206 76 227 5 10 9 23 9 29 0 6 6 25 14 42 17 39 35 96 42
133 3 16 9 33 14 39 4 5 31 93 60 195 28 102 55 193 61 202 5 10 9 23 9 30 0
7 6 24 13 38 7 14 21 50 31 80 11 30 23 65 29 77 5 11 6 26 3 32 -4 6 0 11 8
11 9 0 16 6 16 13 0 7 13 46 29 87 20 53 25 77 17 82 -7 5 -5 8 7 8 9 0 16 3
15 8 -2 10 13 65 22 77 11 16 10 85 -1 85 -6 0 -29 16 -52 35 -47 40 -57 43
-64 15 -6 -21 -36 -35 -53 -25 -8 5 -8 11 -1 19 18 21 -15 57 -50 54 -16 -1
-33 -6 -38 -11z m189 -232 c-22 -65 -43 -89 -34 -37 7 39 32 120 41 135 18 28
13 -37 -7 -98z m-920 75 c0 -5 -2 -10 -4 -10 -3 0 -8 5 -11 10 -3 6 -1 10 4
10 6 0 11 -4 11 -10z m796 -72 c-11 -35 -24 -66 -29 -69 -6 -4 -7 -14 -4 -23
4 -9 3 -16 -2 -16 -4 0 -18 -35 -30 -77 -12 -43 -34 -109 -48 -146 -14 -38
-22 -71 -19 -74 3 -3 2 -11 -3 -17 -8 -11 -65 -161 -60 -161 5 0 -24 -80 -32
-91 -5 -6 -6 -13 -3 -17 3 -3 1 -14 -5 -25 -7 -13 -7 -22 1 -30 9 -9 8 -12 -5
-12 -9 0 -18 -7 -18 -15 -2 -26 -4 -33 -46 -163 -7 -24 -11 -48 -7 -53 3 -5 0
-8 -7 -7 -7 2 -16 -13 -21 -35 -4 -21 -14 -48 -22 -58 -15 -22 -10 -58 10 -74
11 -8 11 -20 2 -55 -6 -25 -14 -49 -18 -53 -4 -5 -19 11 -33 35 -15 24 -54 72
-88 108 -70 73 -129 146 -129 159 0 5 -7 14 -15 21 -11 9 -14 22 -10 41 4 15
1 30 -5 34 -22 14 -71 7 -93 -12 -12 -11 -28 -18 -34 -16 -14 5 -83 -34 -83
-47 0 -4 -16 -18 -35 -31 -25 -17 -34 -30 -31 -42 3 -11 2 -16 -1 -13 -7 6
-18 -6 -130 -144 -45 -56 -107 -143 -123 -175 -5 -11 -14 -27 -20 -35 -23 -37
-80 -172 -91 -216 -6 -27 -17 -58 -24 -69 -23 -38 -44 -186 -48 -335 -3 -85
22 -326 39 -387 5 -18 1 -25 -20 -33 -15 -5 -25 -14 -22 -18 2 -4 -7 -8 -22
-9 -15 0 -19 1 -9 4 9 2 17 9 17 14 0 6 -8 8 -17 5 -10 -2 -34 -8 -53 -12 -19
-4 -37 -8 -40 -9 -3 -1 -32 -7 -65 -14 -33 -8 -71 -18 -85 -24 -14 -5 -38 -9
-55 -8 -21 1 -26 -1 -16 -7 14 -10 10 -14 -23 -26 -17 -6 -17 -5 -5 10 13 16
11 17 -21 11 l-36 -7 -18 60 c-9 34 -18 98 -19 143 -2 45 -6 87 -10 94 -9 14
-1 191 15 348 7 61 12 123 11 140 0 16 6 34 13 40 8 5 15 30 17 55 4 43 8 59
42 140 8 19 35 89 60 155 89 235 168 364 328 538 40 43 74 83 75 88 2 5 10 9
18 9 8 0 14 5 14 11 0 6 18 29 41 50 22 21 42 46 44 56 2 10 4 20 4 23 1 3 5
0 9 -6 11 -17 69 3 75 25 3 11 -1 31 -8 45 -10 18 -10 26 -2 29 7 3 3 8 -8 13
-11 4 -36 23 -55 43 -19 20 -57 56 -85 81 -27 25 -83 81 -123 124 -71 75 -73
78 -55 95 10 11 21 14 24 8 4 -5 9 -5 13 2 4 6 12 9 17 6 5 -4 14 -3 21 1 7 4
23 9 36 10 14 2 32 6 41 10 9 4 30 6 48 5 17 -1 41 3 53 9 29 15 38 5 16 -19
-16 -17 -16 -20 0 -35 17 -18 41 -16 37 3 -2 6 5 10 15 8 15 -2 164 35 202 50
8 3 21 5 29 4 7 -1 10 2 7 8 -4 6 11 9 36 9 24 -1 90 7 148 16 111 18 116 18
280 36 58 6 141 15 185 21 44 6 88 10 97 10 10 0 20 4 23 10 4 5 28 9 54 9
l48 0 -21 -62z m-1081 -68 c-3 -5 -14 -10 -23 -10 -15 0 -15 2 -2 10 20 13 33
13 25 0z m1168 -25 c-3 -9 -8 -14 -10 -11 -3 3 -2 9 2 15 9 16 15 13 8 -4z
m-20 -60 c-9 -19 -18 -33 -20 -31 -6 6 19 66 28 66 5 0 1 -16 -8 -35z m-1863
-1230 c0 -8 -4 -15 -10 -15 -5 0 -10 7 -10 15 0 8 5 15 10 15 6 0 10 -7 10
-15z m-1510 -157 c0 -5 -3 -8 -7 -8 -5 0 -59 -9 -122 -20 -167 -29 -218 -33
-225 -21 -5 7 4 11 23 11 32 0 81 18 94 35 6 7 10 6 13 -1 5 -13 82 -8 97 6
11 9 127 7 127 -2z m-384 -54 c-22 -16 -36 -18 -36 -6 0 13 7 18 32 19 22 2
22 1 4 -13z m-246 -28 c0 -2 -7 -6 -15 -10 -8 -3 -15 -1 -15 4 0 6 7 10 15 10
8 0 15 -2 15 -4z m823 -61 c25 -19 51 -35 57 -35 6 0 13 -7 16 -15 4 -8 11
-15 17 -15 5 0 33 -21 62 -47 93 -86 153 -133 170 -133 9 0 14 -4 11 -9 -8
-13 106 -92 122 -86 10 3 11 -1 7 -16 -4 -13 0 -28 11 -40 16 -18 29 -20 104
-18 47 1 93 6 103 11 10 5 64 11 120 13 56 2 129 11 162 19 33 8 75 15 93 16
26 0 35 5 39 21 4 13 12 19 26 17 22 -3 27 -37 13 -88 -8 -29 -8 -22 -2 -205
3 -77 8 -153 11 -170 14 -70 3 -95 -42 -95 -16 0 -21 -4 -17 -15 4 -9 0 -15
-10 -15 -9 0 -15 6 -13 13 3 17 -42 9 -74 -14 -30 -21 -49 -24 -49 -9 0 19
-42 10 -47 -10 -3 -11 -9 -17 -14 -14 -5 3 -7 10 -4 15 4 5 1 9 -4 9 -6 0 -11
-4 -11 -9 0 -5 -17 -9 -37 -8 -73 1 -196 -21 -188 -33 3 -5 1 -11 -5 -15 -5
-3 -10 -1 -10 5 0 8 -9 10 -27 5 -16 -4 -44 -9 -63 -11 -19 -2 -46 -6 -60 -8
-14 -2 -36 -5 -49 -5 -15 -1 -21 -6 -18 -15 4 -10 -6 -13 -49 -11 -30 2 -54 0
-54 -3 0 -4 -22 -6 -48 -4 -26 2 -77 -4 -112 -14 -36 -9 -76 -18 -90 -20 -125
-15 -191 -25 -222 -33 -34 -10 -84 -24 -128 -36 -8 -2 -49 -12 -90 -23 -72
-19 -75 -21 -78 -51 -2 -21 -9 -31 -20 -31 -22 -1 -42 -17 -67 -55 l-20 -30
-5 40 c-4 32 -9 40 -25 40 -17 0 -22 -10 -31 -66 -11 -68 -16 -81 -43 -112
-10 -12 -16 -39 -16 -78 0 -32 -6 -64 -13 -71 -7 -7 -12 -25 -12 -40 0 -16 -4
-36 -9 -46 -18 -34 -24 -58 -27 -122 -4 -104 -11 -160 -30 -245 -9 -44 -18
-91 -20 -105 -11 -80 -38 -192 -85 -344 -6 -19 -5 -33 1 -42 8 -8 7 -13 -1
-16 -7 -2 -18 -23 -24 -46 -11 -35 -11 -42 0 -42 8 0 17 4 20 10 3 5 2 10 -4
10 -6 0 -8 7 -5 15 4 8 10 12 15 9 5 -3 6 2 3 10 -3 9 -1 16 5 16 16 0 14 -40
-4 -74 -8 -15 -15 -52 -15 -82 0 -57 -13 -131 -61 -334 -16 -69 -36 -172 -45
-230 -9 -58 -17 -112 -19 -120 -14 -90 -18 -110 -25 -110 -9 0 -5 88 4 97 3 4
0 13 -7 21 -6 9 -7 13 -1 9 7 -4 17 30 28 101 19 115 42 231 75 382 12 52 24
108 28 124 4 21 3 27 -5 22 -17 -11 -15 3 4 22 10 9 12 18 6 20 -7 2 -6 15 4
38 14 34 14 35 -6 24 -11 -6 -22 -21 -25 -33 -2 -12 -14 -60 -26 -107 -12 -47
-23 -100 -25 -118 -2 -18 -5 -36 -8 -41 -8 -12 -55 -248 -71 -351 -13 -89 -17
-119 -30 -230 -3 -25 -10 -72 -16 -105 -6 -33 -13 -79 -16 -103 -7 -54 -23
-54 -24 1 0 23 -2 49 -4 57 -10 41 -14 61 -20 110 -4 30 -13 83 -21 119 -7 36
-14 87 -14 112 0 25 -3 49 -7 53 -4 4 -8 17 -8 29 0 14 -6 22 -17 21 -17 -2
-15 18 4 43 5 7 4 13 -4 16 -10 4 -10 8 2 16 12 9 13 12 1 20 -10 7 -11 10 -1
16 10 6 8 12 -6 23 -13 10 -15 16 -6 19 6 3 12 18 12 34 0 16 -6 29 -12 30
-10 0 -10 2 0 6 19 7 14 30 -10 48 -20 13 -21 17 -8 25 9 6 10 10 3 10 -7 0
-10 7 -7 15 4 8 1 15 -5 15 -7 0 -10 -27 -7 -85 4 -90 -8 -108 -19 -27 -4 26
-10 58 -15 72 -5 14 -12 47 -15 74 -3 28 -10 53 -16 57 -6 4 -8 12 -4 18 9 16
-15 113 -32 127 -9 8 -10 13 -3 16 8 2 6 23 -4 68 -8 36 -18 81 -20 100 -12
76 -19 105 -28 117 -5 7 -7 16 -5 20 6 9 -27 200 -43 248 -9 31 -22 130 -26
200 -1 22 -2 50 -3 63 0 12 -4 21 -8 21 -20 -3 -33 2 -33 12 0 8 4 8 14 0 9
-8 16 -8 20 -2 4 5 2 12 -2 15 -7 4 -11 43 -16 154 -1 12 -3 22 -6 22 -3 0 -5
32 -4 71 0 39 -3 94 -7 123 -12 83 -16 166 -8 166 4 0 10 -11 13 -24 6 -23 36
-45 36 -26 0 6 -5 10 -11 10 -8 0 -8 5 1 15 10 12 10 15 -4 15 -14 0 -14 3 -4
21 11 17 10 22 -6 35 -11 8 -15 14 -9 14 6 0 9 9 6 20 -3 11 -9 17 -14 14 -5
-3 -9 4 -9 15 0 12 5 21 11 21 6 0 8 9 3 23 -4 12 -7 28 -7 35 0 15 -19 16
-35 0 -9 -9 -12 -8 -12 4 0 9 9 18 20 21 24 6 27 45 5 53 -12 5 -13 9 -4 20
10 12 9 13 -5 8 -9 -3 -16 -1 -16 5 0 6 7 11 17 11 15 0 15 1 0 18 -10 10 -14
21 -11 25 4 3 1 20 -4 37 -6 17 -7 28 -3 25 5 -3 9 11 8 29 0 19 -4 33 -7 31
-3 -2 -5 20 -4 48 2 29 -1 66 -6 82 -14 47 -21 195 -9 195 6 0 7 5 4 10 -3 6
-2 10 3 10 6 0 15 14 21 30 7 22 7 30 -1 30 -7 0 -5 5 4 13 20 16 62 87 52 87
-11 0 52 58 93 86 l31 22 20 -23 c19 -22 22 -22 68 -9 27 7 68 20 92 29 24 8
75 20 114 25 38 6 74 12 78 15 9 5 77 18 103 19 9 0 17 3 17 6 0 3 24 6 53 7
62 2 159 11 207 19 19 3 60 7 90 9 91 5 174 16 180 24 3 4 18 7 35 6 16 -1 41
4 55 12 14 7 47 12 73 11 27 -1 52 3 55 9 7 10 36 15 123 21 16 1 43 -11 72
-33z m-468 6 c-3 -6 -20 -11 -38 -11 -36 0 -26 16 13 22 30 5 34 3 25 -11z
m3869 -37 c36 -36 69 -91 63 -107 -2 -6 -11 2 -20 20 -14 27 -47 55 -67 58
-15 2 -50 32 -50 42 0 23 46 14 74 -13z m-186 -30 c29 -13 61 -24 72 -24 11 0
20 -4 20 -8 0 -4 19 -20 43 -35 87 -57 95 -68 117 -151 11 -44 20 -93 20 -110
0 -17 6 -43 14 -58 20 -38 25 -37 -194 -53 -52 -3 -112 -11 -133 -16 -20 -5
-61 -12 -90 -14 -28 -2 -106 -11 -172 -19 -66 -9 -123 -16 -127 -16 -4 0 -14
-7 -22 -16 -10 -10 -16 -11 -16 -4 0 9 -11 10 -35 6 -20 -4 -68 -11 -108 -16
-116 -15 -190 -30 -203 -41 -7 -6 -15 -6 -18 -1 -5 9 -131 -7 -226 -28 -25 -6
-54 -12 -65 -14 -11 -3 -39 -9 -62 -14 -23 -5 -44 -8 -45 -6 -2 2 -9 -6 -16
-16 -7 -11 -8 -20 -3 -20 5 0 11 6 14 13 3 9 8 8 22 -3 11 -9 16 -10 11 -2 -4
7 0 15 10 19 10 4 19 2 22 -5 2 -7 10 -12 18 -12 9 0 13 3 11 8 -5 7 23 11 76
11 16 1 42 7 58 15 16 8 27 10 24 5 -4 -5 1 -9 9 -9 8 0 19 6 23 13 5 7 32 13
63 14 30 1 69 3 85 6 17 2 47 5 68 6 22 0 37 6 37 14 0 8 23 12 78 13 92 0
136 10 126 27 -5 9 -4 9 5 1 16 -15 83 -6 97 12 9 11 13 12 16 3 3 -8 20 -10
61 -5 32 4 55 11 53 14 -2 4 19 6 47 6 78 -2 117 5 110 22 -3 8 -1 14 5 14 5
0 12 -7 16 -15 3 -8 10 -15 16 -15 6 0 8 5 5 10 -3 6 -4 10 -1 10 2 0 12 3 22
7 13 5 15 3 9 -7 -7 -11 1 -12 41 -6 27 4 74 9 104 12 30 4 63 13 73 22 12 11
17 12 17 2 0 -7 7 -10 15 -7 8 4 17 2 20 -3 4 -6 -1 -10 -9 -10 -9 0 -19 -1
-23 -2 -5 -1 -26 -5 -48 -10 -22 -4 -51 -11 -65 -14 -14 -3 -63 -12 -110 -19
-47 -8 -128 -23 -180 -34 -52 -11 -147 -27 -210 -36 -63 -9 -134 -21 -158 -26
-55 -12 -296 -50 -342 -54 -19 -1 -75 -10 -125 -18 -77 -14 -123 -20 -195 -28
-45 -6 -61 1 -58 24 2 12 10 27 18 34 13 10 11 12 -12 13 -15 0 -30 4 -33 10
-16 27 -37 132 -35 185 3 164 5 205 10 205 3 0 6 16 8 36 1 20 4 40 7 44 8 13
136 32 148 22 13 -11 12 -11 121 12 43 9 93 16 112 16 24 0 34 5 34 16 0 10 5
12 12 7 16 -9 69 -4 83 7 6 5 24 8 40 8 17 -1 40 2 51 6 22 7 131 26 289 52
50 8 125 16 168 19 43 2 90 11 105 19 34 18 90 11 160 -20z m-4548 -55 c0 -5
-4 -8 -9 -4 -5 3 -12 1 -16 -5 -8 -13 -25 -13 -25 -1 0 8 16 16 43 20 4 0 7
-4 7 -10z m3336 -26 c-4 -5 -11 -8 -14 -8 -4 -1 -18 -7 -31 -14 -20 -11 -25
-11 -32 0 -15 25 -10 29 38 29 25 0 43 -3 39 -7z m-3646 -140 c0 -5 -11 -28
-25 -52 -14 -23 -25 -51 -25 -61 0 -18 -17 -36 -26 -28 -7 8 26 108 36 108 5
0 12 9 15 20 6 19 25 29 25 13z m2210 -28 c0 -9 -6 -12 -15 -9 -8 4 -15 10
-15 15 0 5 7 9 15 9 8 0 15 -7 15 -15z m3761 -290 c42 -62 48 -93 33 -166 -8
-35 -16 -75 -18 -87 -3 -13 -10 -30 -17 -38 -6 -8 -9 -17 -6 -21 4 -3 2 -12
-4 -20 -6 -7 -8 -13 -4 -13 4 0 3 -6 -3 -12 -5 -7 -15 -46 -22 -85 -6 -40 -16
-75 -21 -79 -5 -3 -9 -10 -9 -15 0 -6 5 -7 10 -4 6 3 10 2 10 -4 0 -5 -5 -11
-11 -13 -9 -3 -19 -37 -32 -108 -2 -8 -8 -26 -15 -40 -14 -30 -44 -136 -46
-167 -2 -12 -7 -28 -13 -35 -6 -7 -27 -69 -47 -138 -36 -125 -42 -146 -70
-250 -30 -113 -35 -136 -41 -169 -3 -19 -8 -37 -10 -41 -2 -4 -7 -26 -10 -50
-3 -23 -8 -46 -11 -51 -3 -5 0 -9 5 -9 6 0 11 -5 11 -11 0 -5 -4 -7 -10 -4 -5
3 -11 -4 -12 -17 -1 -28 -2 -34 -11 -73 -4 -16 -9 -52 -12 -80 -4 -27 -13 -99
-21 -158 -17 -127 -17 -150 -4 -142 6 3 10 1 10 -4 0 -6 -6 -11 -13 -11 -9 0
-14 -15 -16 -47 -1 -26 -6 -63 -11 -82 -6 -20 -14 -77 -19 -127 -5 -50 -19
-130 -31 -179 -12 -49 -20 -96 -17 -105 2 -8 -2 -21 -10 -28 -17 -17 -17 -60
2 -78 8 -9 15 -18 15 -22 0 -16 -41 -72 -52 -73 -7 0 -35 -27 -63 -59 -33 -38
-60 -61 -80 -66 -16 -3 -39 -11 -50 -17 -12 -7 -87 -10 -191 -10 -94 1 -202
-3 -240 -7 -38 -5 -114 -13 -169 -19 -55 -6 -118 -16 -140 -21 -22 -5 -60 -12
-84 -15 -52 -6 -112 -17 -326 -61 -116 -24 -163 -37 -173 -51 -19 -26 1 -28
79 -8 35 9 76 18 92 20 15 1 30 4 35 5 4 1 11 2 16 1 8 -2 105 19 194 41 23 6
42 16 42 22 0 6 4 5 9 -3 6 -9 11 -10 15 -2 4 6 12 8 18 5 6 -4 14 0 19 7 6 9
12 10 17 4 15 -22 78 -4 66 18 -5 8 -3 8 7 0 7 -7 18 -13 24 -13 5 0 3 5 -5
10 -11 7 -6 9 18 7 17 -2 34 -6 37 -8 2 -3 22 -3 44 -1 29 3 38 8 34 18 -3 8
0 14 6 14 6 0 11 -5 11 -11 0 -15 126 -4 146 12 8 6 14 8 14 3 0 -5 54 -7 120
-5 124 3 169 -3 140 -19 -60 -33 -291 -81 -298 -60 -8 22 -169 4 -164 -18 1
-7 -2 -12 -8 -12 -5 0 -10 5 -10 11 0 7 -14 8 -42 3 -24 -4 -52 -8 -63 -10
-11 -2 -58 -9 -105 -15 -47 -6 -137 -22 -200 -36 -63 -13 -160 -33 -215 -44
-55 -10 -167 -32 -250 -49 -82 -17 -168 -33 -190 -35 -65 -7 -324 -43 -355
-50 -37 -8 -48 11 -12 20 21 6 24 9 10 14 -10 3 11 6 46 7 50 0 67 5 84 22 24
24 42 29 42 11 0 -24 177 16 207 47 18 18 37 18 30 0 -4 -11 6 -11 66 1 40 8
86 18 103 24 17 5 40 9 52 9 12 0 22 5 22 10 0 6 -5 10 -12 10 -6 0 -8 3 -5 6
4 4 13 1 22 -6 19 -15 28 -9 19 14 -8 20 -9 20 -113 -5 -47 -11 -106 -25 -131
-30 -25 -4 -91 -17 -147 -28 -57 -11 -112 -25 -123 -31 -11 -6 -24 -9 -29 -6
-4 3 -23 1 -42 -5 -34 -10 -116 -25 -197 -36 -32 -4 -42 -9 -38 -19 4 -11 1
-12 -13 -4 -25 13 -81 2 -81 -16 0 -8 -5 -14 -11 -14 -5 0 -7 5 -3 11 4 8 -3
9 -22 5 -37 -7 -224 -33 -289 -40 -27 -3 -66 -8 -85 -11 -48 -7 -121 -14 -215
-20 -44 -3 -125 -12 -180 -19 -55 -8 -107 -14 -115 -14 -8 0 -49 -6 -90 -12
-41 -7 -99 -14 -128 -17 -28 -3 -50 -8 -48 -12 3 -4 -10 -5 -27 -3 -18 2 -74
-3 -126 -12 -52 -8 -98 -13 -102 -10 -4 2 -20 -1 -36 -7 -15 -6 -44 -13 -63
-15 -19 -2 -53 -8 -75 -14 -22 -5 -88 -21 -148 -35 -59 -13 -120 -31 -135 -38
-15 -7 -35 -12 -45 -9 -10 2 -23 -1 -30 -6 -7 -5 -28 -13 -47 -17 -19 -4 -81
-22 -137 -40 -56 -18 -122 -36 -145 -40 -24 -3 -55 -8 -69 -11 -30 -6 -45 16
-30 45 5 9 12 37 16 61 8 53 12 61 28 54 17 -6 35 30 41 81 3 22 12 78 21 125
9 47 17 115 20 152 2 38 6 72 9 76 3 4 10 39 16 78 6 38 18 96 26 129 8 33 16
80 17 105 1 25 5 47 9 50 3 3 8 32 10 66 3 33 8 65 12 72 4 7 2 12 -5 12 -8 0
-8 4 -1 13 8 10 16 53 49 267 3 19 7 37 9 39 2 2 -1 12 -7 22 -5 11 -6 19 -1
19 8 0 30 107 36 170 1 14 5 32 8 40 6 16 25 135 34 215 3 28 10 69 15 93 5
24 7 48 3 53 -3 5 -1 15 4 22 8 11 16 46 27 119 16 106 28 167 40 216 11 41
12 58 4 61 -8 2 -7 6 2 12 8 4 15 19 16 31 1 13 14 70 28 128 15 58 30 121 34
140 13 55 38 112 92 210 23 42 77 95 107 104 12 4 22 13 22 21 0 25 195 70
295 68 11 -1 72 7 135 18 174 27 309 47 372 54 32 4 60 11 64 16 3 5 14 7 24
4 10 -3 45 1 76 9 32 8 61 13 66 10 4 -3 14 -2 20 2 7 5 19 9 28 10 27 3 69
12 77 17 5 3 37 6 73 8 36 2 70 6 75 10 6 4 26 9 46 12 20 2 42 8 49 12 6 4
46 9 88 10 42 2 88 6 102 9 44 10 87 18 117 21 85 10 115 15 132 25 12 6 22 6
25 1 6 -9 43 -4 61 9 6 4 35 10 65 14 78 9 222 32 310 50 41 9 125 23 185 31
61 9 121 18 135 21 14 2 43 7 65 10 22 4 43 12 47 18 6 8 8 8 8 0 0 -12 62 -4
104 12 15 6 18 4 14 -8 -11 -28 10 -36 55 -21 22 8 46 17 51 21 6 3 25 5 42 3
20 -1 35 3 41 13 4 8 21 18 37 22 22 5 27 4 21 -6 -5 -9 -2 -10 11 -6 11 3 37
8 59 11 22 2 72 11 110 20 39 8 80 15 93 15 12 0 22 5 22 11 0 6 7 8 16 5 8
-3 36 -1 60 4 25 6 69 13 97 16 29 2 68 9 87 14 44 11 131 21 233 25 44 2 85
9 93 15 7 7 40 11 76 9 57 -2 110 7 178 31 14 5 63 11 110 15 100 8 98 8 131
-1 16 -3 38 0 55 10 16 9 47 15 69 13 33 -2 43 -8 66 -42z m-1531 15 c0 -5 -2
-10 -4 -10 -3 0 -8 5 -11 10 -3 6 -1 10 4 10 6 0 11 -4 11 -10z m-4447 -184
c3 -8 0 -19 -7 -25 -10 -9 -12 -6 -8 14 5 29 8 31 15 11z m3329 -18 c4 -10 17
-10 67 0 34 7 66 10 71 7 24 -15 5 -24 -57 -30 -38 -3 -86 -10 -108 -15 -60
-14 -107 -16 -106 -5 0 6 21 13 47 17 25 4 53 9 62 13 14 5 14 7 2 15 -13 8
-13 10 2 10 9 0 18 -6 20 -12z m-157 -28 c3 -5 -1 -10 -10 -10 -9 0 -13 5 -10
10 3 6 8 10 10 10 2 0 7 -4 10 -10z m-3165 -26 c0 -2 -9 -8 -19 -13 -16 -9
-18 -8 -14 8 3 12 11 17 19 14 8 -3 14 -7 14 -9z m3130 -14 c0 -5 -2 -10 -4
-10 -3 0 -8 5 -11 10 -3 6 -1 10 4 10 6 0 11 -4 11 -10z m-140 -4 c0 -3 -4 -8
-10 -11 -5 -3 -10 -1 -10 4 0 6 5 11 10 11 6 0 10 -2 10 -4z m-2990 -11 c0 -3
-6 -14 -12 -25 -11 -17 -10 -22 2 -30 11 -8 12 -12 3 -18 -9 -6 -8 -12 7 -22
17 -12 17 -15 3 -25 -17 -13 -25 -92 -10 -112 4 -6 3 -14 -3 -18 -5 -3 -11 1
-11 9 -2 18 -5 35 -9 39 -2 2 -7 47 -13 122 -3 39 16 85 34 85 5 0 9 -2 9 -5z
m2470 -75 c0 -5 -2 -10 -4 -10 -3 0 -8 5 -11 10 -3 6 -1 10 4 10 6 0 11 -4 11
-10z m3487 -102 c-3 -8 -6 -5 -6 6 -1 11 2 17 5 13 3 -3 4 -12 1 -19z m-6077
-10 c0 -19 -2 -20 -10 -8 -13 19 -13 30 0 30 6 0 10 -10 10 -22z m6054 -165
c-3 -32 -10 -71 -14 -88 -5 -16 -11 -48 -14 -70 -3 -22 -14 -94 -25 -160 -12
-66 -26 -151 -32 -190 -16 -103 -28 -160 -54 -255 -13 -47 -33 -125 -45 -175
-11 -49 -27 -115 -36 -145 -9 -30 -24 -93 -35 -140 -10 -47 -26 -110 -35 -140
-15 -55 -22 -81 -44 -172 -6 -27 -15 -48 -20 -48 -9 0 -4 63 10 125 5 22 12
76 15 120 3 44 8 98 10 120 3 22 7 61 9 86 2 25 8 54 13 65 5 10 11 36 12 57
1 22 8 64 16 95 8 30 13 58 10 60 -3 3 0 11 6 18 6 7 12 33 15 58 2 25 11 67
20 93 14 41 39 130 49 173 11 48 35 132 40 140 3 5 12 31 20 57 27 97 28 99
16 83 -6 -9 -11 -10 -11 -3 0 6 6 18 14 25 7 8 18 29 24 48 16 49 38 128 52
178 15 59 21 52 14 -15z m-5012 -870 c-6 -2 -9 -10 -6 -15 4 -7 2 -8 -5 -4
-13 9 -5 26 12 25 9 0 8 -2 -1 -6z m4948 -53 c0 -5 -4 -10 -10 -10 -5 0 -10 5
-10 10 0 6 5 10 10 10 6 0 10 -4 10 -10z m-5750 -480 c0 -5 -4 -10 -10 -10 -5
0 -10 5 -10 10 0 6 5 10 10 10 6 0 10 -4 10 -10z m35 -79 c3 -5 1 -12 -5 -16
-5 -3 -10 1 -10 9 0 18 6 21 15 7z m5530 -421 c3 -5 1 -10 -4 -10 -6 0 -11 5
-11 10 0 6 2 10 4 10 3 0 8 -4 11 -10z m-5340 -146 c9 -44 25 -119 35 -169 17
-81 53 -282 65 -360 11 -78 14 -184 5 -190 -5 -3 -10 0 -11 7 -2 31 -35 240
-59 373 -18 101 -58 347 -66 405 -9 72 13 25 31 -66z m-75 -309 c0 -8 -2 -15
-4 -15 -2 0 -6 7 -10 15 -3 8 -1 15 4 15 6 0 10 -7 10 -15z m4447 -71 c-3 -3
-12 -4 -19 -1 -8 3 -5 6 6 6 11 1 17 -2 13 -5z m-700 -120 c-3 -3 -12 -4 -19
-1 -8 3 -5 6 6 6 11 1 17 -2 13 -5z m-3717 -53 c0 -6 -4 -13 -10 -16 -5 -3
-10 1 -10 9 0 9 5 16 10 16 6 0 10 -4 10 -9z m3215 -51 c-3 -5 -11 -10 -16
-10 -6 0 -7 5 -4 10 3 6 11 10 16 10 6 0 7 -4 4 -10z m-372 -97 c-7 -2 -19 -2
-25 0 -7 3 -2 5 12 5 14 0 19 -2 13 -5z m-773 -93 c0 -5 8 -10 17 -10 11 0 14
-3 7 -10 -5 -5 -52 -16 -104 -24 -52 -8 -187 -31 -300 -50 -113 -20 -209 -36
-213 -36 -5 0 -5 -4 -2 -10 3 -5 0 -7 -9 -4 -15 6 -201 -21 -381 -56 -55 -10
-122 -21 -150 -25 -88 -11 -119 -16 -179 -26 -32 -6 -60 -8 -63 -5 -7 7 52 30
120 46 31 7 57 16 57 19 0 3 10 7 23 7 37 2 88 12 177 34 47 12 94 23 105 24
49 7 101 19 118 28 11 5 17 5 17 -2 0 -5 5 -10 10 -10 6 0 10 8 10 18 0 11 3
13 8 5 4 -6 21 -10 37 -8 89 10 108 14 116 26 5 9 14 10 30 3 12 -6 45 -7 78
-3 31 4 76 10 101 13 25 3 63 9 85 13 22 4 46 6 53 4 6 -1 12 3 12 8 0 6 7 8
15 5 21 -8 185 17 179 28 -3 4 2 8 10 8 9 0 16 -4 16 -10z m-135 -10 c-3 -5
-12 -10 -18 -10 -7 0 -6 4 3 10 19 12 23 12 15 0z m-1640 -40 c3 -5 1 -10 -4
-10 -6 0 -11 5 -11 10 0 6 2 10 4 10 3 0 8 -4 11 -10z m-245 -20 c0 -5 -2 -10
-4 -10 -3 0 -8 5 -11 10 -3 6 -1 10 4 10 6 0 11 -4 11 -10z m2510 1 c0 -11
-40 -22 -52 -15 -5 3 -6 10 -3 15 8 12 55 12 55 0z m-89 -14 c-10 -10 -35 -15
-79 -16 -18 -1 -31 -5 -28 -9 5 -9 -71 -8 -80 0 -2 3 21 10 53 16 32 7 67 13
78 15 33 7 65 3 56 -6z m-1111 -191 c0 -2 -7 -6 -15 -10 -8 -3 -15 -1 -15 4 0
6 7 10 15 10 8 0 15 -2 15 -4z m-64 -15 c-3 -4 -27 -11 -53 -14 -27 -3 -102
-17 -168 -32 -66 -14 -167 -35 -225 -45 -58 -11 -125 -24 -150 -29 -68 -15
-143 -18 -147 -5 -2 6 14 11 41 12 25 1 91 13 148 26 97 23 306 64 428 84 73
13 132 14 126 3z m-919 -85 c16 -16 -17 -26 -83 -26 -57 0 -74 3 -74 14 0 8 5
16 12 18 16 6 139 0 145 -6z m-17 -66 c0 -5 -5 -10 -11 -10 -5 0 -7 5 -4 10 3
6 8 10 11 10 2 0 4 -4 4 -10z"/>
<path d="M4124 3820 c5 -54 15 -82 27 -74 5 3 9 1 9 -5 0 -5 -5 -11 -10 -13
-7 -2 -5 -24 5 -63 9 -33 18 -69 19 -80 2 -11 6 -29 9 -40 4 -11 9 -34 11 -50
6 -47 18 -89 30 -104 9 -12 8 -13 -3 -7 -10 7 -12 3 -6 -14 7 -23 13 -48 14
-65 1 -5 6 -3 11 5 8 13 10 12 10 -2 0 -10 5 -18 10 -18 15 0 12 18 -7 38 -24
25 -27 43 -7 35 14 -5 15 -3 4 18 -7 13 -18 27 -24 32 -8 5 -7 9 2 15 10 7 10
19 1 58 -6 27 -17 61 -24 75 -7 15 -9 32 -5 39 5 7 2 33 -5 57 -7 23 -11 43
-8 43 3 0 1 6 -4 13 -5 6 -10 25 -11 41 -1 17 -11 40 -23 52 -13 14 -17 24
-10 29 6 3 11 12 11 18 0 8 -3 7 -9 -2 -7 -11 -9 -11 -14 0 -4 8 -5 -6 -3 -31z"/>
<path d="M4230 3281 c0 -6 4 -12 9 -15 4 -3 7 -22 5 -43 -3 -42 5 -61 17 -42
7 11 9 10 9 -3 0 -10 5 -18 11 -18 6 0 8 8 5 18 -2 9 -8 36 -11 60 -4 23 -11
40 -16 36 -5 -3 -9 0 -9 5 0 6 -4 11 -10 11 -5 0 -10 -4 -10 -9z"/>
<path d="M4263 3113 c3 -27 8 -65 10 -86 5 -42 11 -52 26 -42 14 8 14 35 1 35
-5 0 -10 5 -10 11 0 5 5 7 10 4 6 -3 10 -2 10 4 0 5 -4 12 -10 16 -5 3 -9 18
-9 33 0 47 -4 61 -19 67 -11 4 -13 -4 -9 -42z"/>
<path d="M4286 2945 c4 -14 8 -40 9 -58 4 -44 4 -44 15 -27 7 11 8 6 4 -17 -6
-33 11 -93 26 -93 9 0 5 47 -6 82 -3 11 -6 35 -6 54 0 25 -4 34 -16 34 -12 0
-13 3 -4 12 8 8 9 15 1 25 -18 21 -30 15 -23 -12z"/>
<path d="M4311 2735 c0 -11 4 -29 9 -40 l9 -20 0 20 c0 11 -4 29 -9 40 l-9 20
0 -20z"/>
<path d="M4346 2705 c4 -8 8 -15 10 -15 2 0 4 7 4 15 0 8 -4 15 -10 15 -5 0
-7 -7 -4 -15z"/>
<path d="M4329 2660 c-3 -8 -2 -33 2 -55 4 -22 13 -94 19 -160 7 -66 16 -127
21 -135 7 -10 8 -5 4 17 -4 18 -2 34 4 38 13 8 15 85 2 85 -5 0 -12 7 -15 16
-3 8 -2 12 4 9 6 -4 10 9 9 32 -1 40 -16 108 -18 84 -1 -13 -3 -13 -13 -2 -11
11 -10 14 0 18 8 3 10 9 3 16 -5 7 -11 21 -13 32 -3 15 -5 16 -9 5z"/>
<path d="M8120 4344 c-19 -9 -46 -17 -60 -18 -75 -9 -110 -20 -110 -33 0 -11
5 -13 18 -8 9 4 26 9 37 11 11 1 34 7 52 12 17 6 34 7 38 4 3 -4 10 0 15 7 4
8 18 15 31 16 13 1 25 7 27 13 5 16 -5 15 -48 -4z"/>
<path d="M7730 4260 c-9 -6 -10 -10 -3 -10 6 0 15 5 18 10 8 12 4 12 -15 0z"/>
<path d="M9500 1525 c0 -8 5 -15 10 -15 6 0 10 7 10 15 0 8 -4 15 -10 15 -5 0
-10 -7 -10 -15z"/>
<path d="M7058 973 c7 -3 16 -2 19 1 4 3 -2 6 -13 5 -11 0 -14 -3 -6 -6z"/>
<path d="M6863 963 c-13 -3 -23 -9 -23 -15 0 -6 12 -8 31 -4 17 3 47 6 67 6
19 0 33 3 29 6 -7 8 -76 12 -104 7z"/>
</g>
</svg>
